<?xml version="1.0" standalone="no"?>
<!DOCTYPE svg PUBLIC "-//W3C//DTD SVG 1.1//EN" "http://www.w3.org/Graphics/SVG/1.1/DTD/svg11.dtd" >
<svg xmlns="http://www.w3.org/2000/svg" xmlns:xlink="http://www.w3.org/1999/xlink" version="1.1">
<metadata></metadata>
<defs>
<font id="ideal_gothicbold" horiz-adv-x="1105" >
<font-face units-per-em="2048" ascent="1638" descent="-410" />
<missing-glyph horiz-adv-x="512" />
<glyph unicode="&#xfb01;" horiz-adv-x="1064" d="M61 772q0 13 21 33.5t42 49t21 63.5v235q0 167 125 268t334 101q131 0 231.5 -37t100.5 -80q0 -10 -3.5 -19t-15 -28t-20.5 -39t-19 -42.5t-15 -34.5t-11 -25t-9.5 -19t-8 -11.5t-9 -7t-10.5 -1.5q-24 0 -24 18q0 6 2 25t2 32q0 30 -55.5 53t-137.5 23q-89 0 -153 -43.5 t-64 -132.5v-223h410q38 0 80 17.5t51 17.5q22 0 22 -23q0 -12 -8 -40t-8 -58v-758q0 -12 11 -20t25 -11.5t25 -11t11 -18.5q0 -25 -23 -25h-344q-23 0 -23 25q0 11 11 18.5t25 11t25 11.5t11 20v659h-301v-659q0 -12 11.5 -20t25.5 -11.5t25.5 -11t11.5 -18.5 q0 -25 -23 -25h-340q-22 0 -22 25q0 11 11 18.5t24.5 11t24.5 11.5t11 20v659h-51q-33 0 -33 27z" />
<glyph unicode="&#xfb02;" horiz-adv-x="1062" d="M61 772q0 13 21 33.5t42 49t21 63.5v235q0 108 57.5 193.5t150.5 130.5t202 45q73 0 131.5 -15t94 -30t53.5 -15q38 0 60.5 12.5t31.5 12.5q22 0 22 -23q0 -10 -8 -38.5t-8 -59.5v-1280q0 -15 17 -23t34.5 -16t17.5 -22q0 -25 -22 -25h-336q-22 0 -22 25q0 14 17.5 22 t34.5 16t17 23v1186q0 22 -29 39.5t-77 17.5q-81 0 -140 -43.5t-59 -132.5v-223h211q24 0 34.5 -10.5t10.5 -34.5q0 -39 1 -112l1 -73q0 -24 -22 -24q-11 0 -20 11t-14.5 23.5t-14.5 23.5t-19 11h-168v-659q0 -12 11.5 -20t25.5 -11.5t25.5 -11t11.5 -18.5q0 -25 -23 -25 h-340q-22 0 -22 25q0 11 11 18.5t24.5 11t24.5 11.5t11 20v659h-51q-33 0 -33 27z" />
<glyph horiz-adv-x="0" />
<glyph horiz-adv-x="682" />
<glyph unicode=" "  horiz-adv-x="512" />
<glyph unicode="&#x09;" horiz-adv-x="512" />
<glyph unicode="&#xa0;" horiz-adv-x="512" />
<glyph unicode="!" horiz-adv-x="598" d="M102 1438q0 24 23 24h348q23 0 23 -24q0 -10 -11 -17.5t-24.5 -12t-24.5 -12.5t-12 -20l-29 -887q-1 -20 -4 -35.5t-5.5 -25.5t-10 -17t-11.5 -11t-15 -5.5t-14.5 -2t-17.5 0t-18 0.5q-49 0 -64 9q-29 20 -32 87l-29 887q-1 12 -12 20t-24.5 12.5t-24.5 12t-11 17.5z M150 123q0 58 43.5 99.5t105.5 41.5q61 0 105.5 -41.5t44.5 -99.5q0 -57 -45 -99t-105 -42q-61 0 -105 42t-44 99z" />
<glyph unicode="&#x22;" horiz-adv-x="784" d="M104 1372q-10 57 31 102.5t98 45.5q58 0 100 -45.5t32 -102.5l-62 -328q-11 -59 -70 -59q-60 0 -71 59zM430 1372q-10 57 31 102.5t98 45.5q58 0 99.5 -45.5t31.5 -102.5l-61 -328q-11 -59 -70 -59q-61 0 -72 59z" />
<glyph unicode="#" horiz-adv-x="1220" d="M32.5 442.5q-0.5 3.5 0 17t0.5 17.5v62q0 34 10 53.5t41 19.5h158l98 277h-96q-11 0 -19.5 2t-14.5 3.5t-10 7t-6 8t-3 12t-1 12.5v15.5v15.5v59q0 35 11 55.5t43 20.5h170l110 309q13 36 26.5 44.5t51.5 8.5h70q65 0 76 -7q18 -12 -2 -71q-2 -6 -5 -14l-96 -270h189 l110 309q12 33 27 43t51 10h70q69 0 80 -13t-11 -79l-96 -270h72q16 0 27 -3t16.5 -7t8 -14.5t3 -17.5t0.5 -25v-9v-59v-8q0 -20 -1 -28.5t-5.5 -20t-16.5 -15.5t-32 -4h-148l-100 -277h88q21 0 33 -3.5t17 -13.5t6 -18.5t1 -28.5v-9v-62v-7q0 -20 -1 -28.5t-6 -20t-17 -16 t-33 -4.5h-162l-123 -344q-14 -39 -29 -48t-49 -9h-69q-34 0 -50.5 2.5t-26.5 12t-7.5 27.5t14.5 50l111 309h-191l-123 -344q-13 -35 -26 -46t-51 -11h-70q-37 0 -52.5 2t-25 11.5t-6 27t15.5 51.5l109 309h-82q-12 0 -21 1.5t-14.5 6.5t-9 8t-5 12.5t-2 13zM469 612h193 l98 277h-191z" />
<glyph unicode="$" d="M66 78q0 10 11 29.5t32.5 51.5t31.5 50q11 19 30 61t33.5 66t26.5 24q25 0 25 -24q0 -1 -0.5 -14.5t-0.5 -22.5t2.5 -20t8.5 -17q39 -40 109.5 -67t150.5 -27q67 0 126 20.5t101 69t42 117.5q0 96 -62.5 150.5t-255.5 138.5q-212 92 -294.5 187t-82.5 236q0 146 93 251.5 t256 138.5v137q0 18 -35 32t-35 29q0 21 22 21h310q22 0 22 -21q0 -15 -34.5 -29t-34.5 -32v-129q135 -14 262 -101q18 -11 45.5 6t36.5 17t14.5 -7t5.5 -16q0 -10 -11.5 -30t-32.5 -51.5t-32 -49.5t-30.5 -60.5t-34.5 -66.5t-27 -24q-24 0 -24 24q0 2 0.5 11t0.5 16.5 t-1 17t-3.5 17t-7.5 12.5q-46 44 -110 73.5t-133 29.5q-108 0 -176 -53t-68 -150q0 -71 47.5 -114t179.5 -101q131 -56 214.5 -103.5t143.5 -104.5t85.5 -122.5t25.5 -151.5q0 -161 -99.5 -270.5t-270.5 -142.5v-170q0 -12 11 -20t23.5 -12t23.5 -11.5t11 -18.5 q0 -20 -22 -20h-310q-22 0 -22 20q0 14 17.5 22t35 16.5t17.5 23.5v162q-149 15 -281 94q-18 10 -45.5 -5.5t-36.5 -15.5t-14.5 7t-5.5 16z" />
<glyph unicode="%" horiz-adv-x="1378" d="M53 1196q0 121 92 207t220 86t219.5 -86t91.5 -207q0 -120 -92 -206.5t-219 -86.5q-128 0 -220 86.5t-92 206.5zM159 23.5q-12 23.5 9 54.5l803 1341q25 43 73 43h109q44 0 54.5 -20.5t-11.5 -55.5l-797 -1339q-27 -47 -73 -47h-113q-42 0 -54 23.5zM262 1196 q0 -43 29.5 -73.5t73.5 -30.5q43 0 74.5 30.5t31.5 73.5t-31.5 73.5t-74.5 30.5q-44 0 -73.5 -30.5t-29.5 -73.5zM700 270q0 121 92 207t220 86t219.5 -86t91.5 -207q0 -120 -92 -206.5t-219 -86.5q-128 0 -220 86.5t-92 206.5zM909 270q0 -43 29.5 -73.5t73.5 -30.5 q43 0 74.5 30.5t31.5 73.5t-31.5 74t-74.5 31q-44 0 -73.5 -31t-29.5 -74z" />
<glyph unicode="&#x26;" horiz-adv-x="1337" d="M70 383q0 125 76.5 240.5t211.5 191.5q-153 136 -153 309q0 155 116 260t312 105q166 0 270.5 -97.5t104.5 -236.5q0 -118 -58 -214t-155 -142q59 -30 88 -64q46 103 121.5 160t169.5 57q18 0 31 37t28 37q24 0 24 -22v-293q0 -23 -24 -23q-15 0 -28 37t-31 37 q-20 0 -36.5 -5.5t-29.5 -20t-22 -25.5t-18.5 -37.5t-14 -38.5t-14.5 -46.5t-13 -45.5q20 -51 33.5 -110.5t20.5 -99t17 -75t28.5 -53t50.5 -17.5q15 0 25.5 11.5t14.5 25.5t12 25.5t19 11.5q25 0 25 -22v-258q0 -23 -25 -23q-11 0 -17 6.5t-8.5 14t-11 14t-22.5 6.5 q-114 0 -178.5 45.5t-114.5 165.5q-141 -236 -416 -236q-182 0 -295.5 106t-113.5 302zM322 385q0 -95 49 -149t139 -54q45 0 83 18t64 43.5t51.5 71t40.5 82t37 95.5q-69 113 -219 196q-245 -108 -245 -303zM442 1130q0 -65 38.5 -111.5t140.5 -103.5q172 65 172 228 q0 63 -42 108t-122 45q-82 0 -134.5 -46.5t-52.5 -119.5z" />
<glyph unicode="'" horiz-adv-x="483" d="M104 1372q-10 57 31 102.5t98 45.5q58 0 100 -45.5t32 -102.5l-62 -328q-11 -59 -70 -59q-60 0 -71 59z" />
<glyph unicode="(" horiz-adv-x="696" d="M57 733q0 208 36.5 378t107.5 294.5t182.5 193t255.5 68.5q11 0 18.5 -4t11.5 -9t5.5 -15.5t1 -18.5t-1 -24t-0.5 -25t0.5 -23t0.5 -21t-0.5 -16.5t-2.5 -14t-6 -9.5t-10.5 -6.5t-16.5 -1.5q-334 0 -334 -746q0 -181 18.5 -316.5t57.5 -233t104 -147.5t154 -50 q10 0 16.5 -1.5t10.5 -6t6 -9t2.5 -14t0.5 -16.5t-0.5 -21t-0.5 -24q0 -9 0.5 -24.5t1 -24t-1 -19.5t-5.5 -17t-11.5 -10t-18.5 -4q-192 0 -324 117.5t-195 325.5t-63 495z" />
<glyph unicode=")" horiz-adv-x="686" d="M21.5 -154.5q0.5 8.5 1 24t0.5 24.5q0 10 -0.5 24t-0.5 21t0.5 16.5t2.5 14t5.5 9t10 6t16.5 1.5q89 0 154 50t104 147.5t57.5 233t18.5 316.5q0 746 -334 746q-10 0 -16.5 2t-10 6.5t-5.5 9t-2.5 13.5t-0.5 16.5t0.5 21t0.5 23.5t-0.5 25.5t-1 23.5t1 18.5t5 15.5t11 9 t18.5 4q144 0 255.5 -68.5t182.5 -193t107.5 -294.5t36.5 -378q0 -287 -63 -495t-195 -325.5t-324 -117.5q-11 0 -18.5 4t-11 10t-5 17t-1 19.5z" />
<glyph unicode="*" horiz-adv-x="722" d="M32 1014.5q18 47.5 66 60.5l127 35v8l-127 35q-48 13 -66 62t7 88q24 39 72.5 46.5t85.5 -26.5l96 -92l6 2l-35 129q-13 48 19.5 87.5t78.5 39.5q47 0 79 -39.5t20 -87.5l-33 -129l6 -4l94 94q38 35 87 26.5t73 -49.5q23 -39 5 -86.5t-66 -60.5l-127 -35v-8l127 -35 q48 -13 66 -61.5t-7 -87.5q-24 -39 -72.5 -47t-85.5 26l-92 90l-8 -4l33 -125q12 -49 -21 -89t-80 -38q-45 0 -76.5 39.5t-19.5 87.5l33 125l-8 6l-92 -92q-38 -35 -87 -26.5t-73 49.5q-23 39 -5 86.5z" />
<glyph unicode="+" d="M117 463v13v13v43q0 12 0.5 18.5t2.5 16.5t7 14.5t14 8.5t23 4h303v303q0 15 2 24.5t4 14.5t9.5 7.5t10.5 3t16.5 0t18.5 -0.5h43q4 0 17 0.5t16.5 0t12 -3t11 -7.5t5 -15t2.5 -24v-303h303q10 0 18 -1.5t13 -2t8.5 -5.5t5.5 -6.5t3 -9.5t1 -9.5v-13.5v-14v-43v-11.5 v-11.5t-0.5 -9.5t-2 -9t-3.5 -7t-6 -6.5l-9 -4.5t-12 -3t-16 -0.5h-303v-303q0 -17 -2 -27.5t-10.5 -14.5t-12 -5.5t-19.5 -0.5t-20 1h-43q-21 0 -31 1.5t-20 12.5t-10 33v303h-303q-10 0 -17.5 1.5t-12.5 3t-8.5 6t-5 6.5t-2.5 10t-1 10z" />
<glyph unicode="," horiz-adv-x="514" d="M113 141q0 59 40 100.5t99 41.5q65 0 107 -38.5t42 -109.5q0 -94 -37.5 -185.5t-87.5 -144.5t-92 -53q-26 0 -35.5 8.5t-9.5 30.5q0 13 19 47t38 77.5t19 80.5q0 31 -14 31q-37 0 -62.5 31t-25.5 83z" />
<glyph unicode="-" horiz-adv-x="522" d="M51 476v9v45q0 48 8 60q10 14 35 14h328q9 0 16 -0.5t12.5 -3.5t9 -4.5t5.5 -6.5t3.5 -7.5t2 -10.5t0.5 -11.5v-14.5v-15v-45v-14v-13t-0.5 -11t-2 -10.5t-3.5 -8t-6 -7.5l-9 -4.5t-12 -3.5t-16 -1h-328q-16 0 -25 4t-13 14.5t-4.5 18.5t-0.5 27z" />
<glyph unicode="." horiz-adv-x="546" d="M113 133q0 64 47 109t112 45q66 0 114 -45t48 -109t-47.5 -108.5t-114.5 -44.5q-65 0 -112 44.5t-47 108.5z" />
<glyph unicode="/" horiz-adv-x="790" d="M39.5 22q-9.5 22 5.5 56l494 1341q16 43 73 43h88q42 0 50.5 -19t-7.5 -57l-487 -1339q-17 -47 -74 -47h-92q-41 0 -50.5 22z" />
<glyph unicode="0" d="M59 733q0 227 52 394t164.5 264.5t277.5 97.5q166 0 279 -97.5t165 -264.5t52 -394q0 -232 -52 -398.5t-165 -262t-279 -95.5q-125 0 -219.5 54t-154.5 154t-90 237.5t-30 310.5zM313 733q0 -139 10.5 -237.5t36 -177t74 -117.5t119.5 -39q72 0 121 39t75.5 117.5t37 177 t10.5 237.5q0 134 -11 232t-37 177.5t-75 120t-121 40.5q-71 0 -119.5 -40.5t-74 -120t-36 -177t-10.5 -232.5z" />
<glyph unicode="1" d="M168 1227q-9 19 10 30q13 7 43 -17t47 -15l424 227q4 2 24.5 14t33.5 17.5t22 5.5q21 0 29 -8t8 -27q0 -8 -4 -38t-4 -70v-1260q0 -12 11 -20t24.5 -11.5t24.5 -11t11 -18.5q0 -25 -22 -25h-344q-23 0 -23 25q0 11 11.5 18.5t24.5 11t24.5 11.5t11.5 20v1063l-186 -107 q-17 -9 -12.5 -48.5t-8.5 -45.5q-23 -13 -33 8z" />
<glyph unicode="2" d="M133 1372q0 22 19 25q9 1 37.5 -14.5t46.5 -2.5q153 109 344 109q215 0 338.5 -107.5t123.5 -275.5q0 -104 -35.5 -182.5t-109.5 -147.5t-209 -155q-249 -160 -270 -433h467q11 0 18.5 11.5t11 25.5t11 25.5t18.5 11.5q25 0 25 -22v-269q0 -22 -25 -22q-11 0 -17 8 t-8.5 17.5t-11 17.5t-22.5 8h-715q-17 0 -25 5t-8 22q0 8 14.5 30.5t14.5 40.5q0 219 108.5 408.5t305.5 312.5q124 76 168.5 139.5t44.5 147.5q0 94 -57 146.5t-158 52.5q-69 0 -129.5 -29t-100.5 -74q-13 -14 -4 -74q0 -22 -25 -26q-12 -1 -28.5 22t-38.5 64t-35 59 q-12 19 -34.5 48t-35.5 48t-14 29z" />
<glyph unicode="3" d="M51 98q1 10 14 29t35.5 48t34.5 48q12 18 35 59t39.5 64.5t28.5 22.5q24 -3 24 -27q-9 -60 4 -74q39 -44 102.5 -72t135.5 -28q116 0 189 67.5t73 186.5q0 113 -65 188.5t-185 75.5h-51q-18 0 -31 -37t-28 -37q-25 0 -25 23v293q0 22 25 22q15 0 28 -36.5t31 -36.5h51 q93 0 153 65t60 152q0 96 -66.5 153.5t-173.5 57.5q-129 0 -221 -103q-13 -14 -4 -74q0 -23 -24 -26q-12 -1 -28.5 22t-39.5 64t-35 59q-12 19 -34.5 48t-35.5 48t-14 29q0 22 19 25q9 1 37.5 -14.5t46.5 -2.5q72 51 150 80t188 29q221 0 355 -112t134 -290 q0 -93 -55.5 -170t-145.5 -116v-6q240 -114 240 -361q0 -211 -140.5 -334t-379.5 -123q-189 0 -348 113q-18 13 -46.5 -2t-37.5 -14q-19 3 -19 24z" />
<glyph unicode="4" d="M30.5 441q-11.5 29 18.5 75l537 860q6 10 -4.5 17.5t-26.5 12.5t-30.5 13.5t-14.5 18.5q0 24 22 24h340q23 0 23 -24q0 -15 -36 -29.5t-36 -32.5v-776h146q11 0 18.5 11.5t11 25.5t11 25.5t18.5 11.5q25 0 25 -23v-268q0 -23 -25 -23q-11 0 -17 8t-8.5 18t-11 18t-22.5 8 h-146v-326q0 -12 11.5 -20t24.5 -11.5t24.5 -11t11.5 -18.5q0 -25 -23 -25h-346q-22 0 -22 25q0 11 11.5 18.5t25.5 11t25.5 11.5t11.5 20v326h-484q-52 0 -63.5 29zM315 600h263v440z" />
<glyph unicode="5" d="M49 90q1 10 14 29t36.5 48.5t35.5 47.5q13 18 35 58.5t38 63t28 21.5q25 0 22 -24q-9 -63 4 -76q98 -90 246 -90q123 0 191.5 77t68.5 214q0 50 -20 95.5t-62 86t-118 64.5t-177 24q-85 0 -142 -11t-59 -11q-28 0 -28 26q0 6 5 24.5t5 37.5v583q0 14 -8 22.5t-17.5 11 t-17.5 9t-8 17.5q0 24 22 24h715q14 0 22.5 8t11 17.5t9 17.5t17.5 8q24 0 24 -22v-268q0 -23 -24 -23q-14 0 -22 18.5l-16 37t-22 18.5h-444v-348q8 2 24 2q134 0 245 -37t184 -101.5t113 -149.5t40 -181q0 -219 -133.5 -350.5t-378.5 -131.5q-211 0 -356 103 q-17 11 -46 -2t-38 -12q-9 0 -14 7t-5 17z" />
<glyph unicode="6" d="M55 649q0 136 18.5 256t61.5 228.5t108.5 186.5t165 123.5t224.5 45.5q194 0 295 -82q8 -8 20 -8q11 0 31 11t33 11q18 0 18 -24q0 -10 -13 -29t-37 -48.5t-36 -47.5q-13 -18 -34.5 -58t-37.5 -63t-28 -23q-23 0 -23 25q0 2 2 20t1 33t-7 23q-28 33 -77 52t-107 19 q-137 0 -218.5 -113.5t-107.5 -307.5q44 53 116 82.5t155 29.5q140 0 249 -69.5t165.5 -183.5t56.5 -251q0 -101 -35.5 -193t-98 -161.5t-156 -111t-202.5 -41.5q-236 0 -369 168.5t-133 500.5zM319 514q0 -144 62 -243t176 -99q77 0 132.5 45.5t81.5 115.5t26 154 q0 137 -58 223.5t-178 86.5q-117 0 -179.5 -80.5t-62.5 -202.5z" />
<glyph unicode="7" d="M147 1223v268q0 22 25 22q11 0 17 -8t8.5 -17.5t11 -17.5t22.5 -8h779q20 0 28.5 -6t8.5 -24q0 -12 -16.5 -39t-16.5 -54q0 -77 -22.5 -163.5t-59 -168t-80 -168t-87 -177t-80 -181t-59 -193.5t-22.5 -202q0 -12 11 -20t25 -11.5t25 -11t11 -18.5q0 -25 -23 -25h-346 q-22 0 -22 25q0 11 11 18.5t24.5 11t24.5 11.5t11 20q0 119 27.5 238.5t69.5 213.5t92.5 194.5t95 183t78 178t41.5 180.5h-529q-11 0 -18.5 -11.5t-11 -25.5t-11 -25.5t-18.5 -11.5q-25 0 -25 23z" />
<glyph unicode="8" d="M70 422q0 110 56 208.5t165 151.5v4q-85 45 -137 124.5t-52 174.5q0 77 28.5 148t82.5 129t142.5 92.5t197.5 34.5t197 -34.5t142 -92.5t83 -129t29 -148q0 -94 -51.5 -173t-137.5 -124v-4q109 -53 165 -152t56 -210q0 -89 -27 -166t-82.5 -141t-151.5 -101t-222 -37 t-222 37t-151.5 101t-82.5 141t-27 166zM307 422q0 -115 66.5 -184.5t179.5 -69.5q114 0 180 69.5t66 184.5q0 113 -63.5 183.5t-182.5 70.5t-182.5 -70.5t-63.5 -183.5zM334 1094q0 -91 58 -149t161 -58t161 58t58 149q0 95 -59.5 150.5t-159.5 55.5t-159.5 -55.5 t-59.5 -150.5z" />
<glyph unicode="9" d="M57 983q0 136 59.5 251t173.5 186t259 71q236 0 369 -169t133 -501q0 -136 -18.5 -255.5t-61.5 -228.5t-108.5 -186.5t-165 -123t-224.5 -45.5q-195 0 -295 81q-9 9 -20 9t-31 -11.5t-33 -11.5q-18 0 -18 25q0 10 13 29t37 48.5t36 47.5q13 18 34.5 58t37.5 62.5t28 22.5 q23 0 23 -25q0 -2 -2 -20t-1 -32.5t7 -22.5q28 -33 77 -52.5t107 -19.5q137 0 218.5 114t107.5 308q-44 -53 -116 -83t-155 -30q-140 0 -249 69.5t-165.5 183.5t-56.5 251zM309 983q0 -137 58 -223t178 -86q117 0 179 80t62 202q0 93 -25 169t-80 124.5t-132 48.5 t-132.5 -45.5t-81.5 -115.5t-26 -154z" />
<glyph unicode=":" horiz-adv-x="516" d="M113 121q0 58 42.5 98.5t102.5 40.5t102.5 -40.5t42.5 -98.5t-42.5 -98.5t-102.5 -40.5t-102.5 40.5t-42.5 98.5zM113 795q0 58 42.5 98.5t102.5 40.5t102.5 -40.5t42.5 -98.5t-42.5 -99t-102.5 -41t-102.5 41t-42.5 99z" />
<glyph unicode=";" horiz-adv-x="520" d="M113 795q0 58 42.5 98.5t102.5 40.5t102.5 -40.5t42.5 -98.5t-42.5 -99t-102.5 -41t-102.5 41t-42.5 99zM119 141q0 59 40 100.5t99 41.5q65 0 107.5 -38.5t42.5 -109.5t-22.5 -143t-55.5 -123.5t-71 -84t-69 -32.5q-26 0 -35.5 8.5t-9.5 30.5q0 13 19 47t38 77.5 t19 80.5q0 31 -14 31q-37 0 -62.5 31t-25.5 83z" />
<glyph unicode="&#x3c;" d="M121 506v26q0 48 41 72l669 385q47 28 65.5 27t37.5 -33l31 -53q16 -30 8.5 -44.5t-45.5 -37.5l-561 -324l567 -334q37 -23 44 -41t-13 -51l-35 -53q-17 -25 -36 -24.5t-63 26.5l-669 387q-41 24 -41 72z" />
<glyph unicode="=" d="M116 299q1 16 1 20v41q0 22 1.5 32.5t12.5 21t33 10.5h774q15 0 24.5 -2.5t14.5 -4t7.5 -10t3 -11.5t0 -17t-0.5 -19v-41q0 -5 0.5 -15t0 -14t-1.5 -11t-4 -10t-8.5 -6.5t-14.5 -5t-21 -1.5h-774q-17 0 -27.5 2t-14.5 10.5t-5.5 11.5t-0.5 19zM116 627q1 16 1 20v43 q0 12 0.5 18.5t2.5 16.5t7 14.5t14 8.5t23 4h774q13 0 21.5 -1t14 -4.5t8.5 -6t4 -9.5l1.5 -10.5t0 -14t-0.5 -16.5v-43q0 -5 0.5 -15t0 -14t-1.5 -11t-4 -10t-8.5 -6.5t-14.5 -5t-21 -1.5h-774q-17 0 -27.5 2t-14.5 10.5t-5.5 11.5t-0.5 19z" />
<glyph unicode="&#x3e;" d="M136.5 891q-6.5 18 13.5 51l34 53q17 25 36 24.5t63 -26.5l669 -387q41 -24 41 -71v-27q0 -48 -41 -72l-669 -385q-47 -28 -65.5 -27t-37.5 33l-30 54q-16 30 -9 45t45 37l562 323l-568 334q-37 23 -43.5 41z" />
<glyph unicode="?" horiz-adv-x="886" d="M0 1393q0 9 5.5 15.5t14.5 6.5q12 0 38.5 -17t41.5 -9q75 50 148.5 75t183.5 25q215 0 335 -106.5t120 -274.5q0 -78 -21.5 -136.5t-56 -94t-76 -64.5t-83.5 -57t-76.5 -61.5t-56 -87t-21.5 -124.5q0 -34 -7.5 -55t-23.5 -29.5t-30 -11t-38 -2.5q-23 0 -36.5 2.5t-29 11 t-23 29.5t-7.5 55q0 92 19.5 161.5t50 110t68 71.5t75 55.5t68 51t50 68.5t19.5 99q0 93 -58.5 146.5t-160.5 53.5q-149 0 -237 -81q-6 -6 -8.5 -17t-2.5 -20.5t1 -22t1 -14.5q0 -25 -24 -25q-12 0 -25 21.5t-31 62t-28 58.5q-11 19 -32.5 50t-33.5 51t-12 30zM252 123 q0 59 43 100t104 41q62 0 106 -41.5t44 -99.5q0 -57 -44.5 -99t-105.5 -42t-104 42t-43 99z" />
<glyph unicode="@" horiz-adv-x="1656" d="M78 731q0 153 59.5 292.5t159.5 240t239.5 160t292.5 59.5t292.5 -59.5t240.5 -160t160.5 -240t58.5 -292.5q0 -45 -12 -97.5t-44.5 -115t-80.5 -112.5t-130 -83.5t-184 -33.5q-61 0 -104 14t-63 57q-31 -34 -98 -63t-126 -29q-170 0 -268 103t-98 266q0 105 35.5 202 t98.5 172t156.5 120t202.5 45q51 0 104.5 -18t80.5 -46l4 27q3 12 14 22t25 10h112q21 0 29.5 -6t5.5 -26l-88 -654q-3 -28 12 -48.5t39 -20.5q63 0 114 33.5t80 84t44.5 102t15.5 95.5q0 128 -50 244.5t-134.5 201t-201.5 134t-245 49.5q-171 0 -315 -84t-227.5 -229 t-83.5 -316t84 -316t228.5 -229t315.5 -84q197 0 351 107q25 4 44 -33t3 -53q-159 -143 -400 -143q-153 0 -292 59.5t-239 160t-159 239.5t-59 292zM610 629q0 -89 37 -142t115 -53q72 0 124 41t62 109l41 276q10 72 -33.5 112t-113.5 40q-100 0 -166 -100t-66 -283z" />
<glyph unicode="A" horiz-adv-x="1148" d="M-82 25q0 16 34.5 30.5t39.5 30.5l436 1290q0 12 -11 20t-25 12t-25 11.5t-11 18.5q0 24 23 24h391q23 0 23 -24q0 -14 -18 -22t-36 -16.5t-18 -23.5l436 -1290q5 -16 39.5 -30.5t34.5 -30.5q0 -25 -23 -25h-364q-23 0 -23 25q0 10 13 18t28 12t25.5 12t7.5 19l-123 373 h-428l-125 -373q-3 -11 7.5 -19t25.5 -12t28 -12t13 -18q0 -25 -23 -25h-329q-23 0 -23 25zM408 649h303l-152 453h-4z" />
<glyph unicode="B" horiz-adv-x="1193" d="M102 25q0 11 11 18.5t25 11t25 11.5t11 20v1290q0 18 -36 32.5t-36 29.5q0 24 23 24h432q264 0 386 -104t122 -285q0 -92 -54 -169t-126 -107v-9q92 -35 167.5 -133t75.5 -219q0 -92 -30 -169t-91.5 -138t-166.5 -95t-244 -34h-471q-23 0 -23 25zM420 193h174 q127 0 199.5 66.5t72.5 176.5q0 111 -71 179.5t-199 68.5h-176v-491zM420 872h137q118 0 186 51.5t68 141.5q0 104 -66 155.5t-188 51.5h-137v-400z" />
<glyph unicode="C" horiz-adv-x="1081" d="M63 733q0 161 37.5 296.5t110 239t189 162t264.5 58.5q180 0 319 -94q18 -11 45 5.5t37 16.5q9 0 14.5 -6.5t5.5 -15.5q0 -10 -11 -29.5t-32.5 -51.5t-31.5 -50q-9 -16 -30 -60.5t-36 -68t-26 -23.5q-25 0 -25 25q0 1 0.5 14.5t0.5 22t-2.5 19.5t-8.5 17q-38 44 -98 67 t-121 23q-92 0 -159.5 -43t-106 -122.5t-56.5 -178.5t-18 -223q0 -123 18 -222t56.5 -178.5t106 -123t159.5 -43.5q57 0 117.5 24.5t95.5 61.5q6 6 8.5 17t2.5 20t-0.5 22.5t-0.5 14.5q0 24 24 24q11 0 25.5 -23.5t34.5 -67t30 -60.5q11 -18 32 -49.5t32.5 -51.5t11.5 -30 q0 -9 -5.5 -16t-14.5 -7t-36.5 15.5t-45.5 5.5q-144 -89 -311 -89q-119 0 -218 38.5t-169.5 107t-119 163t-71.5 207.5t-23 240z" />
<glyph unicode="D" horiz-adv-x="1282" d="M102 25q0 11 11.5 18.5t25.5 11t25.5 11.5t11.5 20v1290q0 18 -37 32.5t-37 29.5q0 24 23 24h487q119 0 218.5 -36.5t170.5 -102.5t120 -157.5t72.5 -201t23.5 -233.5q0 -155 -38 -286.5t-111.5 -231.5t-190.5 -156.5t-265 -56.5h-487q-23 0 -23 25zM420 190h192 q93 0 161 41t107.5 116.5t57.5 170.5t18 213q0 119 -18 214t-57.5 170t-107.5 116t-161 41h-192v-1082z" />
<glyph unicode="E" horiz-adv-x="1048" d="M102 25q0 11 11.5 18.5t25.5 11t25.5 11.5t11.5 20v1290q0 18 -37 32.5t-37 29.5q0 24 23 24h745q14 0 22.5 8t11 17.5t9 17.5t17.5 8q24 0 24 -22v-268q0 -23 -24 -23q-14 0 -22 18.5l-16 37t-22 18.5h-450v-397h319q18 0 31.5 36.5t28.5 36.5q24 0 23 -22v-293 q0 -23 -23 -23q-15 0 -28.5 37t-31.5 37h-319v-498h459q11 0 18.5 11.5t11 25.5t11 25.5t18.5 11.5q25 0 24 -22v-269q0 -22 -24 -22q-11 0 -17 8t-8.5 17.5t-11 17.5t-22.5 8h-754q-23 0 -23 25z" />
<glyph unicode="F" horiz-adv-x="974" d="M102 25q0 11 11 18.5t25 11t25 11.5t11 20v1290q0 18 -36 32.5t-36 29.5q0 24 23 24h745q14 0 22.5 8t11 17.5t9 17.5t17.5 8q24 0 24 -22v-268q0 -23 -24 -23q-14 0 -22 18.5l-16 37t-22 18.5h-450v-397h319q18 0 31.5 36.5t28.5 36.5q24 0 23 -22v-293q0 -23 -23 -23 q-15 0 -28.5 37t-31.5 37h-319v-600q0 -12 11 -20t25 -12t25 -11t11 -18q0 -25 -21 -25h-346q-23 0 -23 25z" />
<glyph unicode="G" horiz-adv-x="1218" d="M66 733q0 161 37.5 296.5t110 239t188.5 162t264 58.5q180 0 319 -94q18 -11 45.5 5.5t36.5 16.5t14.5 -6.5t5.5 -15.5q0 -10 -11 -29.5t-32.5 -51.5t-31.5 -50q-11 -19 -31 -61t-35 -66.5t-26 -24.5q-25 0 -25 25q0 1 0.5 14.5t0.5 22t-2.5 19.5t-8.5 17q-38 44 -98 67 t-121 23q-92 0 -159.5 -43t-106 -122.5t-56.5 -178.5t-18 -223q0 -123 18 -222t56.5 -178.5t106 -123t159.5 -43.5q55 0 106.5 13t71.5 34v410h-254q-18 0 -31.5 -37t-28.5 -37q-24 0 -24 22v293q0 23 24 23q15 0 28.5 -37t31.5 -37h485q37 0 37 -25q0 -9 -15.5 -25.5 t-15.5 -29.5v-543q0 -10 15.5 -19.5t15.5 -18.5q0 -13 -12.5 -27t-46.5 -37q-60 -42 -177.5 -76.5t-209.5 -34.5q-119 0 -218 38.5t-169 107t-118.5 163t-71.5 207.5t-23 240z" />
<glyph unicode="H" horiz-adv-x="1359" d="M102 25q0 11 11 18.5t25 11t25 11.5t11 20v1290q0 18 -36 32.5t-36 29.5q0 24 21 24h346q23 0 23 -24q0 -15 -36 -29.5t-36 -32.5v-499h520v499q0 18 -36 32.5t-36 29.5q0 24 23 24h346q20 0 20 -24q0 -15 -35.5 -29.5t-35.5 -32.5v-1290q0 -12 11 -20t24.5 -12t24.5 -11 t11 -18q0 -25 -20 -25h-346q-23 0 -23 25q0 11 11 18.5t25 11t25 11.5t11 20v600h-520v-600q0 -12 11 -20t25 -12t25 -11t11 -18q0 -25 -23 -25h-346q-21 0 -21 25z" />
<glyph unicode="I" horiz-adv-x="593" d="M102 25q0 11 11 18.5t25 11t25 11.5t11 20v1290q0 18 -36 32.5t-36 29.5q0 24 23 24h344q23 0 23 -24q0 -15 -36 -29.5t-36 -32.5v-1290q0 -12 11 -20t25 -12t25 -11t11 -18q0 -25 -23 -25h-344q-23 0 -23 25z" />
<glyph unicode="J" horiz-adv-x="927" d="M-39 39q0 10 12 30t33.5 51t32.5 50q10 17 29.5 60.5t34 67.5t26.5 24q23 0 23 -25q0 -1 -0.5 -15t-0.5 -23t2.5 -20t8.5 -16q28 -21 77.5 -37t98.5 -16q190 0 190 307v899q0 18 -36.5 32.5t-36.5 29.5q0 24 22 24h346q23 0 23 -24q0 -15 -37 -29.5t-37 -32.5v-899 q0 -239 -108 -369.5t-326 -130.5q-79 0 -156.5 19t-118.5 43q-16 10 -43 -6.5t-38 -16.5q-9 0 -15 7t-6 16z" />
<glyph unicode="K" horiz-adv-x="1216" d="M102 25q0 11 11 18.5t25 11t25 11.5t11 20v1290q0 18 -36 32.5t-36 29.5q0 24 21 24h346q23 0 23 -24q0 -15 -36 -29.5t-36 -32.5v-547l434 547q3 11 -7.5 19t-25 12.5t-27 12.5t-12.5 18q0 24 23 24h360q23 0 23 -24q0 -17 -32 -34.5t-40 -27.5l-407 -512l469 -778 q8 -14 39.5 -29t31.5 -32q0 -25 -20 -25h-383q-23 0 -23 25q0 10 13 18t28 12t25.5 12t7.5 19l-348 580l-129 -166v-414q0 -12 11 -20t25 -12t25 -11t11 -18q0 -25 -23 -25h-346q-21 0 -21 25z" />
<glyph unicode="L" horiz-adv-x="983" d="M102 25q0 11 11.5 18.5t25.5 11t25.5 11.5t11.5 20v1290q0 18 -37 32.5t-37 29.5q0 24 23 24h346q21 0 21 -24q0 -15 -36 -29.5t-36 -32.5v-1188h459q11 0 18.5 11.5t11 25.5t11 25.5t18.5 11.5q25 0 24 -22v-269q0 -22 -24 -22q-11 0 -17 8t-8.5 17.5t-11 17.5t-22.5 8 h-754q-23 0 -23 25z" />
<glyph unicode="M" horiz-adv-x="1556" d="M102 25q0 11 11 18.5t25 11t25 11.5t11 20v1290q0 18 -36 32.5t-36 29.5q0 24 21 24h356q23 0 23 -24q0 -15 -36 -29.5t-36 -32.5l356 -837h7l344 837q0 18 -36 32.5t-36 29.5q0 24 22 24h347q20 0 20 -24q0 -15 -36 -29.5t-36 -32.5v-1290q0 -12 11 -20t25 -11.5t25 -11 t11 -18.5q0 -25 -20 -25h-338q-23 0 -23 25q0 11 11.5 18.5t24.5 11t24.5 11.5t11.5 20v776h-4l-291 -723q-6 -16 -11.5 -27t-11.5 -18t-9 -11.5t-11 -6t-9.5 -2.5t-11 -0.5t-10.5 0.5h-8.5h-8t-7.5 0.5t-8 2t-7.5 4.5t-8 8t-8 12t-9 16.5t-9.5 21.5l-307 723h-4v-776 q0 -12 11.5 -20t24.5 -11.5t24.5 -11t11.5 -18.5q0 -25 -23 -25h-317q-21 0 -21 25z" />
<glyph unicode="N" horiz-adv-x="1310" d="M102 25q0 11 11 18.5t25 11t25 11.5t11 20v1290q0 18 -36 32.5t-36 29.5q0 24 21 24h342q22 0 22 -24q0 -12 -23.5 -22.5t-41 -22t-6.5 -29.5l497 -844h7v856q0 18 -36 32.5t-36 29.5q0 24 22 24h316q22 0 22 -24q0 -15 -36.5 -29.5t-36.5 -32.5v-1290q0 -12 11.5 -20 t25 -11.5t25 -11t11.5 -18.5q0 -25 -22 -25h-336q-23 0 -23 25q0 11 15 19t32 13.5t26.5 16.5t0.5 26l-508 842h-4v-856q0 -12 11.5 -20t24.5 -11.5t24.5 -11t11.5 -18.5q0 -25 -23 -25h-315q-21 0 -21 25z" />
<glyph unicode="O" horiz-adv-x="1331" d="M70 733q0 161 36.5 296.5t108.5 239t187.5 162t263.5 58.5t264 -58.5t188 -162t109 -239t37 -296.5q0 -127 -23 -239.5t-71 -208t-118 -163.5t-168.5 -106.5t-217.5 -38.5q-148 0 -263.5 58.5t-187.5 162.5t-108.5 239.5t-36.5 295.5zM328 733q0 -123 17.5 -222 t55.5 -178.5t105.5 -123t159.5 -43.5t159.5 43.5t106 123t56.5 178.5t18 222q0 124 -18 223t-56.5 178.5t-106 122.5t-159.5 43q-74 0 -132.5 -29t-96.5 -79t-63 -122.5t-35.5 -155.5t-10.5 -181z" />
<glyph unicode="P" horiz-adv-x="1032" d="M102 25q0 11 11 18.5t25 11t25 11.5t11 20v1290q0 18 -36 32.5t-36 29.5q0 24 21 24h412q134 0 234 -32.5t158.5 -90.5t86.5 -131t28 -161q0 -181 -120 -302.5t-330 -121.5h-172v-537q0 -12 11 -20t25 -12t25 -11t11 -18q0 -25 -23 -25h-346q-21 0 -21 25zM420 811h117 q122 0 186.5 65t64.5 171q0 104 -65.5 164.5t-185.5 60.5h-117v-461z" />
<glyph unicode="Q" horiz-adv-x="1349" d="M70 733q0 161 36.5 296.5t108.5 239t187.5 162t263.5 58.5t264 -58.5t188 -162t109 -239t37 -296.5q0 -321 -150 -534q66 -15 113 -15q11 0 18.5 9t11 19t11 19t18.5 9q25 0 25 -23v-254q0 -22 -25 -22q-14 0 -22 13.5t-15.5 26.5t-21.5 13q-130 0 -260 65 q-125 -82 -301 -82q-148 0 -263.5 58.5t-187.5 162.5t-108.5 239.5t-36.5 295.5zM330 733q0 -124 17.5 -222.5t55 -178t104.5 -123t159 -43.5q66 0 122 24q-47 44 -77 65t-54 21q-82 0 -82 72q0 31 24 50.5t63 19.5q24 0 47.5 -5.5t53 -21t46 -25t55 -35.5t51.5 -34 q91 137 91 436q0 124 -17.5 223t-56 178.5t-106 122.5t-160.5 43q-92 0 -159 -43t-104.5 -122.5t-55 -178.5t-17.5 -223z" />
<glyph unicode="R" horiz-adv-x="1159" d="M102 25q0 11 11.5 19t25.5 11t25.5 11t11.5 20v1290q0 18 -37 32.5t-37 29.5q0 24 23 24h416q133 0 233.5 -32.5t159 -90.5t87 -131t28.5 -161q0 -144 -79.5 -251t-181.5 -134l13 -9l313 -567q7 -14 40.5 -28.5t33.5 -32.5q0 -25 -23 -25h-372q-21 0 -21 25q0 11 14 19 t28 12t21.5 17t-4.5 33l-276 517h-135v-537q0 -12 11.5 -20t25.5 -11.5t25.5 -11t11.5 -18.5q0 -25 -23 -25h-346q-23 0 -23 25zM420 811h123q121 0 186.5 65.5t65.5 170.5q0 104 -66.5 164.5t-185.5 60.5h-123v-461z" />
<glyph unicode="S" horiz-adv-x="1011" d="M4 78q0 10 11.5 30t32.5 51.5t32 49.5q11 19 30 61t33.5 66t26.5 24q25 0 25 -24q0 -1 -0.5 -14.5t-0.5 -22.5t2.5 -20t8.5 -17q39 -40 109.5 -67t150.5 -27q67 0 125.5 20.5t100.5 69t42 117.5q0 40 -10 69.5t-28.5 53.5t-60 49.5t-88 48.5t-130.5 59 q-210 91 -293.5 190.5t-83.5 241.5q0 175 131 288.5t350 113.5q110 0 189 -27t155 -78q18 -11 45.5 6t36.5 17t15 -7t6 -16q0 -10 -11.5 -30t-32.5 -51.5t-32 -49.5t-30.5 -60.5t-34.5 -66.5t-27 -24q-25 0 -25 24q0 1 0.5 14.5t0.5 22.5t-2.5 20t-8.5 17q-45 44 -110 73.5 t-134 29.5q-108 0 -176 -53t-68 -150q0 -71 48.5 -114t181.5 -101q131 -56 214 -103.5t143 -104.5t85 -122.5t25 -151.5q0 -194 -140.5 -310t-367.5 -116q-201 0 -359 99q-18 10 -45 -5.5t-36 -15.5t-15 7t-6 16z" />
<glyph unicode="T" horiz-adv-x="1058" d="M16 1221v262q0 22 25 22q15 0 28.5 -21.5t30.5 -21.5h861q17 0 30.5 21.5t28.5 21.5q24 0 24 -22v-262q0 -23 -24 -23q-10 0 -17.5 11.5t-11 25.5t-11.5 25.5t-19 11.5h-308v-1186q0 -12 11.5 -20t24.5 -11.5t24.5 -11t11.5 -18.5q0 -25 -23 -25h-344q-22 0 -22 25 q0 11 11 18.5t25 11t25 11.5t11 20v1186h-308q-11 0 -19 -11.5t-11.5 -25.5t-11 -25.5t-17.5 -11.5q-25 0 -25 23z" />
<glyph unicode="U" horiz-adv-x="1323" d="M82 1438q0 24 22 24h345q22 0 22 -24q0 -15 -36 -29.5t-36 -32.5v-913q0 -144 65 -213.5t210 -69.5t208.5 69.5t63.5 213.5v913q0 18 -36 32.5t-36 29.5q0 24 23 24h322q22 0 22 -24q0 -15 -36 -29.5t-36 -32.5v-913q0 -230 -121.5 -358t-373.5 -128q-256 0 -388 129.5 t-132 356.5v913q0 18 -36 32.5t-36 29.5z" />
<glyph unicode="V" horiz-adv-x="1142" d="M-82 1438q0 24 23 24h364q23 0 23 -24q0 -10 -13 -18t-28 -12.5t-25.5 -12.5t-7.5 -19l332 -1011h4l334 1011q3 11 -7.5 19t-25.5 12.5t-28 12.5t-13 18q0 24 22 24h330q23 0 23 -24q0 -16 -34.5 -31t-39.5 -31l-436 -1290q0 -12 11 -20t24.5 -12t24.5 -11t11 -18 q0 -25 -22 -25h-385q-23 0 -23 25q0 11 11 18.5t25 11t25 11.5t11 20l-436 1290q-5 16 -39.5 31t-34.5 31z" />
<glyph unicode="W" horiz-adv-x="1820" d="M-29 1438q0 24 23 24h362q21 0 21 -24q0 -10 -12.5 -18t-26.5 -12.5t-25 -12.5t-8 -19l250 -968h4l256 968q3 12 -8 20t-25 12.5t-26.5 12t-12.5 17.5q0 24 21 24h328q22 0 22 -24q0 -10 -12.5 -18t-26.5 -12.5t-25 -12.5t-8 -19l248 -968h4l258 968q3 12 -7.5 20 t-25.5 12.5t-27.5 12t-12.5 17.5q0 24 22 24h326q22 0 22 -24q0 -16 -34.5 -31t-38.5 -31l-355 -1290q0 -12 11.5 -20t24.5 -12t24.5 -11t11.5 -18q0 -25 -23 -25h-385q-22 0 -22 25q0 11 11.5 18.5t25.5 11t25.5 11.5t11.5 20l-228 819h-4l-221 -819q0 -12 11.5 -20 t25.5 -12t25.5 -11t11.5 -18q0 -25 -23 -25h-385q-22 0 -22 25q0 11 11 18.5t24.5 11t24.5 11.5t11 20l-354 1290q-4 16 -39 31t-35 31z" />
<glyph unicode="X" horiz-adv-x="1210" d="M-41 25q0 17 33 33t41 28l434 651l-404 639q-8 12 -39.5 28.5t-31.5 33.5q0 24 22 24h385q23 0 23 -24q0 -10 -12.5 -18t-27 -12.5t-25 -12.5t-7.5 -19l264 -428l281 428q3 11 -7.5 19t-25 12.5t-27 12.5t-12.5 18q0 24 23 24h352q23 0 23 -24q0 -17 -32 -33.5t-40 -28.5 l-406 -602l439 -688q8 -13 40.5 -28.5t32.5 -32.5q0 -25 -22 -25h-383q-23 0 -23 25q0 10 12.5 18t27 12t25 12t7.5 19l-297 467l-313 -467q-3 -11 7 -19t24.5 -12t27 -12t12.5 -18q0 -25 -20 -25h-358q-23 0 -23 25z" />
<glyph unicode="Y" horiz-adv-x="1054" d="M-92 1438q0 24 22 24h385q23 0 23 -24q0 -10 -12.5 -18t-27 -12.5t-25 -12.5t-7.5 -19l275 -420l280 420q3 11 -7 19t-24.5 12.5t-27 12.5t-12.5 18q0 24 22 24h352q23 0 23 -24q0 -17 -32 -33.5t-40 -28.5l-424 -637v-657q0 -12 10.5 -20t23.5 -12t23.5 -11.5 t10.5 -18.5q0 -20 -23 -20h-336q-22 0 -22 20q0 14 17 22t34 16.5t17 23.5v645l-426 649q-7 11 -39.5 28t-32.5 34z" />
<glyph unicode="Z" horiz-adv-x="1026" d="M-18 25q0 18 25 33t32 28l620 1188h-487q-11 0 -18.5 -11.5t-11.5 -25.5t-11 -25.5t-18 -11.5q-25 0 -25 23v268q0 22 25 22q11 0 17 -8t8.5 -17.5t11 -17.5t22.5 -8h840q22 0 22 -24q0 -17 -21 -33t-28 -29l-620 -1188h540q18 0 31.5 37t28.5 37q24 0 23 -22v-269 q0 -22 -23 -22q-10 0 -16 8t-8.5 17.5t-11.5 17.5t-24 8h-901q-22 0 -22 25z" />
<glyph unicode="[" horiz-adv-x="581" d="M98 -129v1722q0 35 19.5 54.5t56.5 19.5h340q14 0 23.5 -3.5t14.5 -8.5t7 -15.5t1.5 -18t-1 -23.5t-0.5 -25q0 -11 1 -33t0.5 -28.5t-4.5 -16.5t-13.5 -13t-26.5 -3h-192v-1493h192q14 0 23 -3t13.5 -6.5t6.5 -13.5t2 -17.5t-1 -25t-1 -29.5q0 -9 0.5 -24.5t1 -23.5 t-1.5 -19t-7 -16t-14.5 -9t-23.5 -4h-340q-36 0 -56 20t-20 56z" />
<glyph unicode="\" horiz-adv-x="790" d="M35.5 1443q8.5 19 50.5 19h88q58 0 74 -43l497 -1341q15 -34 5.5 -56t-50.5 -22h-92q-56 0 -73 47l-492 1339q-16 38 -7.5 57z" />
<glyph unicode="]" horiz-adv-x="598" d="M21 -54.5q0 7.5 2 17.5t6.5 13.5t13.5 6.5t23 3h192v1493h-192q-17 0 -26.5 3t-13.5 13t-4.5 16.5t0.5 28.5t1 33q0 9 -0.5 25t-1 23.5t1.5 18t7 15.5t14.5 8.5t23.5 3.5h340q75 0 75 -74v-1722q0 -36 -19.5 -56t-55.5 -20h-340q-14 0 -23.5 4t-14.5 9t-7 16t-1.5 19 t1 23.5t0.5 24.5q0 12 -1 29.5t-1 25z" />
<glyph unicode="^" d="M33 831l426 596q27 37 80 37h28q53 0 80 -37l424 -596q23 -35 17 -56.5t-39 -41.5l-54 -31q-65 -38 -110 23l-332 467l-332 -467q-18 -25 -52 -30t-58 7l-54 31q-67 39 -24 98z" />
<glyph unicode="_" d="M27 -158h1052v-100h-1052v100z" />
<glyph unicode="`" horiz-adv-x="909" d="M254 1348q0 22 22 38l68 46q22 16 43 16q26 0 55 -29l250 -258q23 -23 23 -47q0 -17 -17 -31l-55 -39q-17 -10 -31 -10q-22 0 -45 19l-284 241q-29 25 -29 54z" />
<glyph unicode="a" horiz-adv-x="968" d="M61 285q0 87 45 155t122.5 109t168.5 63.5t195 28.5q-9 77 -47.5 109t-114.5 32q-54 0 -115 -25.5t-61 -54.5q0 -6 1 -20t1 -23q0 -14 -7.5 -21t-17.5 -7q-9 0 -21.5 19t-32.5 59t-30 57t-30.5 44.5t-33.5 46t-13 26.5q0 20 22 20q10 0 31 -14.5t31 -14.5q2 0 12 5 q113 77 266 77q203 0 304.5 -86.5t101.5 -289.5v-494q0 -15 17 -23t34.5 -16t17.5 -22q0 -27 -22 -27q-36 0 -106 1t-99 1t-38 20t-11 66q-40 -50 -104.5 -80.5t-135.5 -30.5q-152 0 -241 83.5t-89 226.5zM303 291q0 -131 135 -131q66 0 112 36.5t46 90.5v182 q-62 -4 -110.5 -14t-92 -29.5t-67 -53.5t-23.5 -81z" />
<glyph unicode="b" horiz-adv-x="1067" d="M61 25q0 11 11 18.5t24 11t24 11.5t11 20v1335q0 18 -35 32.5t-35 29.5q0 24 21 24h156q36 0 73.5 17.5t46.5 17.5q23 0 23 -22q0 -12 -4 -40t-4 -59v-528q83 63 219 63q180 0 297 -139t117 -346q0 -137 -52.5 -250t-147.5 -178.5t-214 -65.5q-184 0 -262 95 q-1 -37 -25.5 -54.5t-58.5 -17.5h-164q-21 0 -21 25zM373 317q0 -74 50 -117.5t128 -43.5q105 0 153 87.5t48 227.5q0 89 -18 155t-64.5 109t-118.5 43q-78 0 -128 -44t-50 -118v-299z" />
<glyph unicode="c" horiz-adv-x="837" d="M61 469q0 136 54.5 246t159 175.5t241.5 65.5q145 0 223 -53q6 -4 17 -4q12 0 32.5 13.5t30.5 13.5q9 0 15 -7t6 -16q0 -10 -10.5 -29.5t-32 -52t-31.5 -49.5q-12 -20 -29.5 -58.5t-30 -60.5t-22.5 -22q-25 0 -25 24q0 66 -10 74q-57 45 -133 45q-53 0 -92.5 -24 t-62.5 -67t-33.5 -96t-10.5 -118q0 -66 10.5 -120.5t33.5 -98t62.5 -68t92.5 -24.5q76 0 133 45q7 6 8.5 19t1.5 54q0 25 25 25q10 0 22.5 -22t30 -60.5t29.5 -58.5q10 -17 31.5 -49.5t32 -52t10.5 -29.5q0 -9 -6 -16t-15 -7q-10 0 -30.5 13.5t-32.5 13.5q-11 0 -17 -4 q-93 -54 -223 -54q-137 0 -241.5 66.5t-159 178t-54.5 249.5z" />
<glyph unicode="d" horiz-adv-x="1067" d="M63 471q0 207 117 346t297 139q136 0 219 -63v528q0 18 -34.5 32.5t-34.5 29.5q0 24 22 24h154q39 0 80 17.5t49 17.5q22 0 22 -22q0 -12 -8 -40t-8 -59v-1335q0 -12 11 -20t24 -11.5t24 -11t11 -18.5q0 -25 -21 -25h-164q-34 0 -58.5 17.5t-25.5 54.5q-78 -95 -262 -95 q-119 0 -214 65.5t-147.5 178.5t-52.5 250zM317 471q0 -140 48 -227.5t153 -87.5q78 0 128 43.5t50 117.5v299q0 74 -50 118t-128 44q-72 0 -118.5 -43t-64.5 -109t-18 -155z" />
<glyph unicode="e" horiz-adv-x="935" d="M61 469q0 208 126 347.5t333 139.5q80 0 144.5 -23.5t104.5 -61.5t66.5 -89t37 -102t10.5 -105q0 -36 13 -57.5t13 -30.5q0 -26 -26 -26h-568q2 -135 50.5 -219t154.5 -84q95 0 137 45q11 11 11 73q0 25 24 25q12 0 25 -21.5t30 -61.5t27 -58q11 -20 31.5 -51t31.5 -50.5 t11 -29.5q0 -9 -5 -16t-12 -7q-11 0 -33 13.5t-34 13.5q-10 0 -16 -4q-80 -54 -228 -54q-207 0 -333 141.5t-126 352.5zM338 625h326q-3 76 -41.5 118.5t-102.5 42.5q-66 0 -115.5 -42.5t-66.5 -118.5z" />
<glyph unicode="f" horiz-adv-x="657" d="M61 772q0 13 21 33.5t42 49t21 63.5v235q0 172 82.5 270.5t241.5 98.5q108 0 185 -37t77 -80q0 -10 -3.5 -19t-15 -28t-20.5 -39t-19 -42.5t-15 -34.5t-11 -25t-9.5 -19t-8 -11.5t-9 -7t-10.5 -1.5q-24 0 -24 18q0 6 2 25t2 32q0 30 -26 53t-66 23q-68 0 -90.5 -38 t-22.5 -138v-223h211q24 0 34.5 -10.5t10.5 -34.5q0 -39 1 -112l1 -73q0 -24 -22 -24q-11 0 -20 11t-14.5 23.5t-14.5 23.5t-19 11h-168v-659q0 -12 11.5 -20t25.5 -11.5t25.5 -11t11.5 -18.5q0 -25 -23 -25h-340q-22 0 -22 25q0 11 11 18.5t24.5 11t24.5 11.5t11 20v659 h-51q-33 0 -33 27z" />
<glyph unicode="g" horiz-adv-x="995" d="M61 -133q0 130 125 215q-43 60 -43 135q0 32 15.5 67t36.5 56q-117 114 -117 260q0 157 110.5 257.5t300.5 100.5q69 0 127 -12q50 89 135.5 140t186.5 51q31 0 41 -11t10 -45q0 -58 3 -97.5t3 -45.5q0 -19 -6 -27t-24 -8q-14 0 -21.5 10.5t-14 21.5t-16.5 11 q-117 0 -151 -69q65 -45 104 -116.5t39 -160.5q0 -159 -110.5 -254.5t-305.5 -95.5q-55 0 -120 14q-25 -16 -25 -43q0 -50 35 -59q48 -15 229 -15q195 0 289 -67t94 -186q0 -151 -129 -248t-340 -97q-202 0 -331.5 92t-129.5 226zM301 -133q0 -61 60 -91t161 -30 q107 0 168.5 37t61.5 102q0 57 -52.5 77t-173.5 20q-76 0 -141 6q-35 -15 -59.5 -47.5t-24.5 -73.5zM322 600q0 -82 41 -134t126 -52q89 0 134 52t45 134q0 79 -45.5 128.5t-133.5 49.5q-85 0 -126 -49t-41 -129z" />
<glyph unicode="h" horiz-adv-x="1069" d="M61 25q0 11 11 18.5t24 11t24 11.5t11 20v1335q0 18 -35 32.5t-35 29.5q0 24 21 24h156q36 0 78 17.5t51 17.5q22 0 22 -22q0 -12 -8 -40t-8 -59v-534q65 69 207 69q72 0 134 -19t113.5 -59t81 -109t29.5 -161v-522q0 -12 11 -20t24 -11.5t24 -11t11 -18.5q0 -25 -21 -25 h-338q-22 0 -22 25q0 14 17.5 22t34.5 16t17 23v522q0 77 -41 122.5t-112 45.5q-68 0 -119 -41t-51 -108v-541q0 -12 11 -20t23.5 -11.5t23.5 -11t11 -18.5q0 -25 -22 -25h-338q-21 0 -21 25z" />
<glyph unicode="i" horiz-adv-x="507" d="M61 25q0 11 11.5 18.5t24.5 11t24.5 11.5t11.5 20v758q0 18 -36 32t-36 29q0 25 23 25h156q38 0 79 17.5t50 17.5q22 0 22 -23q0 -12 -8 -40t-8 -58v-758q0 -12 11 -20t24.5 -11.5t24.5 -11t11 -18.5q0 -25 -22 -25h-340q-23 0 -23 25zM115 1241q0 55 41 94t98 39 q56 0 97.5 -38.5t41.5 -94.5q0 -54 -41.5 -93.5t-97.5 -39.5q-57 0 -98 39.5t-41 93.5z" />
<glyph unicode="j" horiz-adv-x="501" d="M-121 -164q0 11 8.5 20t18.5 9q33 0 33 -37q0 -32 21 -54t63 -22q50 0 84 25t34 80v987q0 18 -35.5 32t-35.5 29q0 25 22 25h158q38 0 80 17.5t51 17.5q22 0 22 -23q0 -12 -8 -40t-8 -58v-1018q0 -126 -88.5 -196t-239.5 -70q-80 0 -130 17t-50 42v217zM125 1241 q0 55 41 94t98 39q56 0 97.5 -38.5t41.5 -94.5q0 -54 -41.5 -93.5t-97.5 -39.5q-57 0 -98 39.5t-41 93.5z" />
<glyph unicode="k" horiz-adv-x="942" d="M61 25q0 11 11.5 18.5t25.5 11t25.5 11.5t11.5 20v1335q0 18 -37 32.5t-37 29.5q0 24 23 25h158q36 0 77 17t48 17q22 0 22 -22q0 -12 -8 -40t-8 -59v-837l200 247q5 5 5 13q0 12 -11 20t-24 11.5t-24 11t-11 18.5q0 25 22 25h367q23 0 23 -25q0 -15 -30 -27t-36 -20 l-262 -301l301 -481q6 -10 38 -22.5t32 -28.5q0 -25 -23 -25h-365q-18 0 -18 25q0 11 12.5 19.5t27 13.5t23.5 13.5t3 18.5l-185 303l-65 -76v-231q0 -12 11.5 -20t25 -11.5t25 -11t11.5 -18.5q0 -25 -22 -25h-340q-23 0 -23 25z" />
<glyph unicode="l" horiz-adv-x="503" d="M61 25q0 11 11 18.5t24 11t24 11.5t11 20v1335q0 18 -35 32.5t-35 29.5q0 24 23 24h152q38 0 80 17.5t51 17.5q22 0 22 -22q0 -12 -8 -40t-8 -59v-1335q0 -12 11 -20t23.5 -12t23.5 -11t11 -18q0 -25 -22 -25h-336q-23 0 -23 25z" />
<glyph unicode="m" horiz-adv-x="1585" d="M61 25q0 11 11.5 18.5t24.5 11t24.5 11.5t11.5 20v758q0 18 -36 32t-36 29q0 25 23 25h156q38 0 61.5 17.5t32.5 17.5q18 0 18 -23q0 -14 -6 -38.5t-6 -47.5h4q76 100 223 100q79 0 148 -30.5t106 -81.5q95 112 271 112q72 0 134.5 -19t114 -59t81.5 -109t30 -161v-522 q0 -12 11 -20t25 -12t25 -11t11 -18q0 -25 -23 -25h-340q-22 0 -22 25q0 11 11.5 18.5t25 11t25 11.5t11.5 20v522q0 79 -37 123.5t-100 44.5q-77 0 -119.5 -46.5t-42.5 -121.5v-522q0 -12 11 -20t24 -12t24 -11t11 -18q0 -25 -22 -25h-336q-23 0 -23 25q0 11 11 18.5t24 11 t24 11.5t11 20v522q0 168 -137 168q-69 0 -115.5 -40.5t-46.5 -108.5v-541q0 -12 11.5 -20t25 -12t25 -11t11.5 -18q0 -25 -22 -25h-340q-23 0 -23 25z" />
<glyph unicode="n" horiz-adv-x="1069" d="M61 905q0 11 6.5 18t16.5 7h156q38 0 61.5 17.5t32.5 17.5q18 0 18 -23q0 -13 -6.5 -37.5t-5.5 -48.5h4q37 49 92 74.5t146 25.5q72 0 134 -19t113.5 -59t81 -109t29.5 -161v-522q0 -12 11 -20t24 -11.5t24 -11t11 -18.5q0 -25 -21 -25h-338q-22 0 -22 25q0 14 17.5 22 t34.5 16t17 23v522q0 77 -41 122.5t-112 45.5t-120.5 -40.5t-49.5 -108.5v-541q0 -12 11 -20t23.5 -11.5t23.5 -11t11 -18.5q0 -25 -22 -25h-338q-21 0 -21 25q0 11 11 18.5t24 11t24 11.5t11 20v758q0 18 -36 32t-36 29z" />
<glyph unicode="o" horiz-adv-x="1032" d="M61 471q0 137 54.5 247t159 174t241.5 64q138 0 242.5 -64.5t158.5 -174t54 -246.5q0 -213 -124 -353.5t-331 -140.5q-206 0 -330.5 141t-124.5 353zM317 471q0 -91 17.5 -158t63.5 -112t118 -45q73 0 119 45t63 112t17 158q0 307 -199 307q-105 0 -152 -84t-47 -223z " />
<glyph unicode="p" horiz-adv-x="1067" d="M61 -410q0 14 17.5 22t35 16.5t17.5 23.5v1192q0 18 -35 32t-35 29q0 25 21 25h117q39 0 72.5 17.5t41.5 17.5q23 0 23 -23q0 -9 -4 -37t-2 -47q78 94 262 94q119 0 214 -65.5t147.5 -178t52.5 -249.5q0 -207 -117 -346.5t-297 -139.5q-134 0 -219 64v-385 q0 -15 17.5 -23.5t34.5 -16.5t17 -22q0 -24 -22 -24h-338q-21 0 -21 24zM373 313q0 -74 50 -117.5t128 -43.5q72 0 118.5 43t64.5 109t18 155q0 140 -48 227.5t-153 87.5q-78 0 -128 -44t-50 -118v-299z" />
<glyph unicode="q" horiz-adv-x="1067" d="M61 459q0 137 52.5 249.5t147.5 178t214 65.5q184 0 262 -94q7 43 28 57.5t56 14.5q31 0 94 3t72 3q19 0 19 -25q0 -14 -17.5 -23.5l-35 -19t-17.5 -24.5v-1192q0 -12 11 -20t24 -12t24 -11.5t11 -18.5q0 -24 -19 -24h-340q-22 0 -22 24q0 11 11 18.5t23.5 11.5t23.5 12 t11 20v385q-85 -64 -219 -64q-180 0 -297 139.5t-117 346.5zM315 459q0 -89 18 -155t64.5 -109t118.5 -43q78 0 128 43.5t50 117.5v299q0 74 -50 118t-128 44q-105 0 -153 -87.5t-48 -227.5z" />
<glyph unicode="r" horiz-adv-x="692" d="M61 25q0 11 11.5 18.5t25.5 11t25.5 11.5t11.5 20v758q0 18 -37 32t-37 29q0 25 23 25h158q36 0 59.5 17.5t32.5 17.5q18 0 18 -23q0 -15 -6 -37t-6 -39h4q84 90 203 90q77 0 124.5 -35t47.5 -69q0 -4 -7 -19t-19 -38.5t-19 -40.5q-7 -15 -21 -54t-23.5 -55t-19.5 -16 q-24 0 -24 26q0 9 2 26.5t2 25.5q0 10 -3 20t-11 22.5t-26 20.5t-44 8q-133 0 -133 -205v-487q0 -12 11.5 -20t25 -11.5t25 -11t11.5 -18.5q0 -25 -22 -25h-340q-23 0 -23 25z" />
<glyph unicode="s" horiz-adv-x="854" d="M51 41q0 10 10.5 29.5t32 52t31.5 49.5q12 20 28.5 58.5t29 60.5t24.5 22q24 0 24 -24q0 -2 -0.5 -11t-0.5 -16.5t1 -17t3.5 -17t7.5 -12.5q24 -24 71.5 -40.5t94.5 -16.5q165 0 165 102q0 47 -30.5 65t-126.5 41q-29 7 -45 11q-160 40 -226.5 110.5t-66.5 188.5 q0 122 92 201t266 79q151 0 238 -59q16 -10 43.5 6.5t38.5 16.5q18 0 18 -23q0 -10 -12 -30t-32.5 -50.5t-31.5 -50.5q-10 -18 -27 -58t-30 -61.5t-25 -21.5q-24 0 -24 24q0 1 0.5 14.5t0.5 22.5t-2.5 20t-8.5 17q-20 20 -60.5 35.5t-85.5 15.5q-143 0 -143 -90 q0 -32 33.5 -49t124.5 -39q190 -43 265 -117.5t75 -202.5q0 -139 -100 -220t-283 -81q-135 0 -246 66q-17 9 -50 -7t-42 -16q-7 0 -13 7t-6 16z" />
<glyph unicode="t" horiz-adv-x="669" d="M20 772q0 11 17.5 26.5t38 29.5t38 38.5t17.5 51.5v196q0 12 -11 20t-24 12t-24 11.5t-11 18.5q0 24 19 24h340q22 0 22 -24q0 -14 -17 -22t-34.5 -16.5t-17.5 -23.5v-184h207q24 0 34.5 -10.5t10.5 -34.5q0 -39 1 -112l1 -73q0 -24 -23 -24q-14 0 -30.5 34.5t-32.5 34.5 h-168v-475q0 -104 106 -104q41 0 65.5 22.5t24.5 53.5q0 37 29 37q10 0 18.5 -9t8.5 -20v-217q0 -25 -48 -42.5t-124 -17.5q-145 0 -233.5 71t-88.5 196v505h-78q-33 0 -33 27z" />
<glyph unicode="u" horiz-adv-x="1069" d="M61 905q0 25 21 25h156q36 0 78 17.5t51 17.5q22 0 22 -23q0 -12 -8 -40t-8 -58v-522q0 -77 41 -122.5t112 -45.5q68 0 119 41t51 108v541q0 18 -34.5 32t-34.5 29q0 25 22 25h154q39 0 80 17.5t49 17.5q22 0 22 -23q0 -12 -8 -40t-8 -58v-758q0 -12 11 -20t24 -11.5 t24 -11t11 -18.5q0 -12 -6 -19.5t-15 -7.5q-37 0 -105 1t-98 1q-45 0 -51 72h-6q-32 -45 -93.5 -72t-144.5 -27q-72 0 -134 19.5t-113.5 59.5t-81 109t-29.5 161v522q0 18 -35 32t-35 29z" />
<glyph unicode="v" horiz-adv-x="907" d="M-33 905q0 25 23 25h352q23 0 23 -25q0 -10 -12.5 -18t-26.5 -12t-24 -12t-7 -19l176 -520h8l170 520q3 11 -7 19t-24 12t-26 12t-12 18q0 25 22 25h316q22 0 22 -25q0 -16 -32 -30.5t-38 -30.5l-284 -762q-3 -9 6 -16.5t22 -12t24 -13.5t11 -20q0 -20 -22 -20h-346 q-23 0 -23 20q0 11 11 20t23.5 13.5t21 12t5.5 16.5l-282 762q-6 16 -38 30.5t-32 30.5z" />
<glyph unicode="w" horiz-adv-x="1392" d="M-20 905q0 25 22 25h360q19 0 19 -25q0 -10 -12.5 -18t-26.5 -12t-24 -12t-7 -19l158 -510h8l139 510q3 11 -7.5 19t-24 12t-25.5 12t-12 18q0 25 18 25h303q21 0 21 -25q0 -10 -12.5 -18t-26.5 -12t-24 -12t-7 -19l158 -510h8l145 510q3 11 -7 19t-24.5 12t-27 12 t-12.5 18q0 25 20 25h312q22 0 22 -25q0 -16 -33.5 -30.5t-38.5 -30.5l-249 -762q-3 -9 6.5 -16.5t22 -11.5t23.5 -13.5t11 -20.5q0 -20 -22 -20h-340q-23 0 -23 20q0 11 10.5 20t23 13.5t21.5 12t6 16.5l-122 399h-4l-123 -399q-3 -9 6.5 -16.5t22 -11.5t23.5 -13.5 t11 -20.5q0 -20 -22 -20h-349q-22 0 -22 20q0 11 11 20t23.5 13.5t21 12t5.5 16.5l-262 762q-5 16 -38 30.5t-33 30.5z" />
<glyph unicode="x" horiz-adv-x="964" d="M-37 25q0 18 31 34.5t39 26.5l315 393l-268 365q-8 12 -39 28t-31 33q0 25 23 25h375q22 0 22 -25q0 -13 -21.5 -23t-37 -20t-4.5 -24l129 -174l139 174q9 11 0.5 20t-22.5 14t-27 14t-13 19q0 25 23 25h340q22 0 22 -25q0 -17 -30.5 -34t-38.5 -27l-271 -348l302 -410 q8 -12 38.5 -28t30.5 -33q0 -25 -22 -25h-375q-23 0 -23 25q0 10 13 19t27 14.5t22 15.5t-2 22l-156 213l-168 -215q-10 -12 -1.5 -21.5t22.5 -14.5t27.5 -14t13.5 -19q0 -25 -23 -25h-358q-23 0 -23 25z" />
<glyph unicode="y" horiz-adv-x="911" d="M-29 905q0 25 23 25h352q23 0 23 -25q0 -10 -12.5 -18t-26.5 -12t-24 -12t-7 -19l174 -514h8l168 514q3 11 -7 19t-24 12t-26 12t-12 18q0 25 22 25h320q22 0 22 -25q0 -16 -32 -30.5t-38 -30.5l-425 -1192q-4 -11 6 -19t24 -12.5t26.5 -12.5t12.5 -18q0 -24 -18 -24 h-324q-22 0 -22 24q0 16 31.5 31t37.5 31l139 379q-17 17 -28 34t-15.5 28t-13.5 36l-264 715q-6 16 -38 30.5t-32 30.5z" />
<glyph unicode="z" horiz-adv-x="837" d="M-4 27q0 11 4 18t12.5 17t14.5 20l415 668h-307q-18 0 -31 -38t-28 -38q-25 0 -25 22v252q0 23 25 23q14 0 24.5 -20.5t34.5 -20.5h664q18 0 18 -19q0 -8 -4.5 -15t-17 -23.5t-23.5 -34.5l-405 -656h350q18 0 31 38t28 38q25 0 25 -22v-254q0 -23 -25 -23 q-14 0 -24.5 20.5t-34.5 20.5h-694q-13 0 -20 8t-7 19z" />
<glyph unicode="{" horiz-adv-x="663" d="M38 734q0 66 19 73q81 37 110.5 81.5t29.5 115.5q0 41 -12.5 136.5t-12.5 147.5q0 193 105 286t331 93q8 0 14 -1.5t10 -5t7.5 -6.5t5 -10t2.5 -11t1.5 -13.5t0.5 -14.5v-17v-17v-13q0 -24 -0.5 -34.5t-4 -23t-12.5 -17t-24 -4.5q-101 0 -149.5 -51t-48.5 -158 q0 -62 12 -155t12 -152q0 -152 -104 -230q104 -81 104 -231q0 -59 -12 -151t-12 -154q0 -107 48.5 -159t149.5 -52q12 0 20 -4t12.5 -8t6.5 -17t2 -20.5v-28.5v-14v-16.5v-17t-0.5 -15t-1.5 -14t-2.5 -11.5t-5 -10.5l-7.5 -7.5t-10 -5.5t-14 -1.5q-226 0 -331 94.5 t-105 286.5q0 51 12.5 147.5t12.5 139.5q0 70 -29.5 114.5t-110.5 81.5q-19 9 -19 75z" />
<glyph unicode="|" horiz-adv-x="432" d="M100 41v1376q0 21 10.5 31.5t23.5 12t42 1.5h82h25t19.5 -2t18 -6.5t9 -13.5t4.5 -23v-1376q0 -9 -2 -15.5t-4 -11t-7 -7.5t-8.5 -4.5t-12 -2t-12 -0.5h-15h-15.5h-82q-52 0 -62 7q-14 9 -14 34z" />
<glyph unicode="}" horiz-adv-x="663" d="M23 -106q0 63 5 75q8 17 35 17q101 0 150 52t49 159q0 62 -12 154t-12 151q0 150 104 231q-104 78 -104 230q0 59 12 152t12 155q0 107 -49 158t-150 51q-20 0 -29 10.5t-10 22.5t-1 43v16v17v16.5v14.5t1 14t3 11.5t5 9.5t7 6.5t10 5t14 1.5q226 0 331.5 -93t105.5 -286 q0 -52 -12.5 -147.5t-12.5 -136.5q0 -72 29 -116t110 -81q19 -7 19 -73t-19 -75q-81 -36 -110 -81t-29 -115q0 -43 12.5 -139.5t12.5 -147.5q0 -192 -105.5 -286.5t-331.5 -94.5q-8 0 -14 1.5t-10 5t-7 7.5t-5 10.5t-3 12t-1 14.5v15v16.5v16.5z" />
<glyph unicode="&#xa1;" horiz-adv-x="598" d="M102 -410q0 10 11 17.5t24.5 12t24.5 12.5t12 20l29 887q1 20 4 35.5t5.5 25.5t10 17t11.5 11t15 5.5t14.5 2t17.5 0t18 -0.5q49 0 64 -9q29 -18 32 -87l29 -887q1 -12 12 -20t24.5 -12.5t24.5 -12t11 -17.5q0 -24 -23 -24h-348q-23 0 -23 24zM150 905q0 57 44.5 99.5 t104.5 42.5q61 0 105.5 -42.5t44.5 -99.5q0 -58 -44 -99.5t-106 -41.5q-60 0 -104.5 41.5t-44.5 99.5z" />
<glyph unicode="&#xa2;" d="M164 997q0 177 94.5 309t253.5 167v118q0 18 -36 32.5t-36 29.5q0 24 23 24h305q23 0 23 -24q0 -15 -36 -29.5t-36 -32.5v-114q81 -15 123 -45q18 -10 45 6t35 16q9 0 14.5 -6.5t5.5 -15.5q0 -10 -10.5 -29.5t-32 -52.5t-31.5 -50q-12 -20 -29.5 -58.5t-30 -60.5 t-22.5 -22q-24 0 -24 25q0 2 1 15t1 22t-3 20t-9 16q-58 46 -134 46q-103 0 -150.5 -84.5t-47.5 -221.5q0 -90 18 -157t64 -110.5t116 -43.5q77 0 134 45q6 5 9 16t3 20.5t-1 22.5t-1 15q0 24 24 24q10 0 22.5 -22t30 -60.5t29.5 -58.5q10 -17 31.5 -49.5t32 -52t10.5 -29.5 q0 -9 -5.5 -15.5t-14.5 -6.5q-8 0 -35 16t-45 6q-42 -30 -123 -45v-170q0 -12 11.5 -20t24.5 -11.5t24.5 -11t11.5 -18.5q0 -25 -23 -25h-305q-23 0 -23 25q0 11 11 18.5t25 11t25 11.5t11 20v174q-159 33 -253.5 166t-94.5 315z" />
<glyph unicode="&#xa3;" d="M20 113q0 80 64 150t158 59q45 57 45 170q0 98 -27 194h-117q-11 0 -18.5 -11.5t-11 -25.5t-10.5 -25.5t-17 -11.5q-25 0 -25 23v297q0 22 25 22q10 0 17 -11.5t10.5 -25t11 -25t18.5 -11.5h62q-31 108 -31 206q0 180 113 291t323 111q173 0 310 -100q18 -13 44.5 2.5 t34.5 15.5q9 0 15 -7t6 -16q0 -10 -11.5 -30t-32.5 -51.5t-32 -49.5t-30.5 -60.5t-34.5 -66.5t-27 -24q-25 0 -25 24q0 70 -18 88q-86 89 -199 89q-192 0 -192 -203q0 -84 41 -219h286q18 0 31.5 36.5t28.5 36.5q24 0 24 -22v-297q0 -23 -24 -23q-15 0 -28.5 37t-31.5 37 h-233q20 -95 20 -190q0 -143 -65 -234q10 -5 52 -27.5t63 -32t59 -20t72 -10.5q73 0 109 43.5t36 122.5q0 18 -37 31t-37 28q0 25 23 25h317q23 0 23 -25q0 -15 -37 -28t-37 -31q0 -162 -96 -261.5t-272 -99.5q-70 0 -150 26.5t-138.5 57.5t-124 57.5t-110.5 26.5 q-30 0 -51 -13t-29.5 -29t-20.5 -29t-26 -13q-20 0 -27.5 10.5t-7.5 41.5z" />
<glyph unicode="&#xa5;" d="M-61 1438q0 24 22 24h373q22 0 22 -24q0 -10 -12.5 -18t-27 -12.5t-24.5 -12.5t-7 -19l274 -420l281 420q3 11 -7.5 19t-25 12.5t-27 12.5t-12.5 18q0 24 23 24h352q22 0 22 -24q0 -17 -31.5 -33.5t-39.5 -28.5l-238 -358h100q13 0 21.5 -1t14 -4.5t9 -5.5t4.5 -9.5 t1.5 -11t0 -14.5t-0.5 -16v-43q0 -4 0.5 -14.5t0 -14.5t-1.5 -11.5t-4.5 -10t-9 -6.5t-14.5 -5t-21 -1h-213l-73 -111v-73h248q15 0 24.5 -2.5t14.5 -4t7.5 -10t3 -11.5t0 -17t-0.5 -19v-41q0 -5 0.5 -15t0 -14t-1.5 -11t-4 -10t-8.5 -6.5t-14.5 -5t-21 -1.5h-248v-416 q0 -15 17 -23.5t33.5 -16.5t16.5 -22q0 -20 -22 -20h-324q-22 0 -22 20q0 14 16.5 22t33.5 16.5t17 23.5v416h-254q-17 0 -27.5 2t-14.5 10.5t-5.5 11.5t-0.5 19t1 20v41q0 22 1.5 32.5t12.5 21t33 10.5h254v61l-80 123h-215q-17 0 -27.5 2t-14.5 10.5t-5.5 11.5t-0.5 19 t1 20v43q0 12 0.5 18.5t2.5 16.5t7 14.5t14 8.5t23 4h105l-236 358q-7 11 -39 28t-32 34z" />
<glyph unicode="&#xa7;" horiz-adv-x="950" d="M37 592q0 71 32.5 145t86.5 135q-62 91 -62 230q0 172 111.5 280.5t296.5 108.5q71 0 141.5 -21t116.5 -55q16 -11 44.5 7t39.5 18q18 0 18 -23q0 -10 -7.5 -21t-34 -44t-52.5 -70q-18 -25 -33 -50t-22.5 -38t-14.5 -24t-12.5 -15t-13.5 -4q-25 0 -25 25l1 14v22.5 t-3.5 20.5t-9.5 18q-47 47 -133 47q-78 0 -133.5 -51t-55.5 -131q0 -83 48 -131t167 -88q200 -68 293.5 -168.5t93.5 -273.5q0 -71 -32.5 -145.5t-85.5 -133.5q63 -99 63 -231q0 -171 -114 -280t-300 -109q-70 0 -151 27.5t-129 64.5q-16 11 -44.5 -7t-39.5 -18 q-19 0 -19 23q0 10 7.5 21t34 44t53.5 70q18 25 33 50t22.5 38t14.5 24t12.5 15t13.5 4q25 0 25 -25l-1 -14v-22.5t3.5 -20.5t9.5 -18q27 -27 72 -46.5t83 -19.5q79 0 137 52t58 132q0 82 -48.5 131t-168.5 89q-200 68 -293.5 168.5t-93.5 273.5zM260 598q0 -98 53 -145.5 t197 -92.5q82 -25 129 -51q26 26 41.5 64.5t15.5 75.5q0 98 -54 145t-200 92q-82 25 -129 51q-53 -63 -53 -139z" />
<glyph unicode="&#xa8;" horiz-adv-x="909" d="M197 1227q0 54 35 90.5t85 36.5q48 0 83.5 -37t35.5 -90q0 -48 -36 -87.5t-83 -39.5q-48 0 -84 39.5t-36 87.5zM578 1227q0 54 35 90.5t85 36.5q48 0 83.5 -37t35.5 -90q0 -48 -36 -87.5t-83 -39.5q-48 0 -84 39.5t-36 87.5z" />
<glyph unicode="&#xa9;" horiz-adv-x="1656" d="M78 731q0 153 59.5 292.5t159.5 240t239.5 160t292.5 59.5t292.5 -59.5t240 -160t160 -240t59.5 -292.5t-59.5 -292.5t-160 -239.5t-240 -159.5t-292.5 -59.5t-292.5 59.5t-239.5 159.5t-159.5 239.5t-59.5 292.5zM201 731q0 -171 84 -316t228.5 -229t315.5 -84 q128 0 244.5 49.5t201 134t134 201t49.5 244.5t-49.5 244.5t-134 201t-201 134t-244.5 49.5q-171 0 -315.5 -84t-228.5 -229t-84 -316zM442 733q0 147 43 261t136 183.5t227 69.5q125 0 217 -63q11 -8 29.5 3t25.5 11q15 0 15 -14q0 -7 -9 -21t-23 -34.5t-22 -34.5 q-5 -10 -19.5 -40.5t-24.5 -46.5t-17 -16q-16 0 -16 17q0 42 -9 49q-50 61 -147 61q-63 0 -110 -29.5t-74 -83t-39.5 -121t-12.5 -151.5t12.5 -151.5t39.5 -121t74 -83t110 -29.5q38 0 79 16.5t64 41.5q4 4 6 12t2.5 13.5t0.5 15.5l-1 10q0 16 17 16q7 0 17 -15.5 t24.5 -46.5t19.5 -40q8 -14 21.5 -35t21.5 -35t8 -20q0 -15 -14 -15q-6 0 -25 10t-30 3q-101 -60 -211 -60q-101 0 -179.5 40t-127.5 110.5t-74 162.5t-25 201z" />
<glyph unicode="&#xab;" horiz-adv-x="1073" d="M61 516q0 55 54 100l317 261q18 18 57 18q26 0 42 -17.5t16 -50.5q0 -20 -45 -71l-195 -232l195 -243q27 -33 36 -48.5t9 -29.5q0 -29 -17.5 -46.5t-42.5 -17.5q-30 0 -55 21l-321 260q-50 43 -50 96zM498 516q0 56 53 100l317 261q18 18 58 18q26 0 41.5 -17.5 t15.5 -50.5q0 -20 -45 -71l-195 -232l195 -243q27 -33 36 -48.5t9 -29.5q0 -29 -17 -46.5t-42 -17.5q-31 0 -56 21l-321 260q-49 42 -49 96z" />
<glyph unicode="&#xac;" d="M65 469q1 16 1 20v43q0 12 0.5 18.5t2.5 16.5t7 14.5t14 8.5t23 4h835q13 0 21.5 -1t14 -4.5t8.5 -6t4 -9.5l1.5 -10.5t0 -14t-0.5 -16.5v-469q0 -5 0.5 -15t0 -14t-1.5 -11t-4 -10t-8.5 -6.5t-14.5 -5t-21 -1.5h-98q-14 0 -23 3.5t-13.5 7t-6.5 14t-2 15v19.5v367h-692 q-17 0 -27.5 2t-14.5 10.5t-5.5 11.5t-0.5 19z" />
<glyph unicode="&#xad;" horiz-adv-x="522" d="M51 476v9v45q0 48 8 60q10 14 35 14h328q9 0 16 -0.5t12.5 -3.5t9 -4.5t5.5 -6.5t3.5 -7.5t2 -10.5t0.5 -11.5v-14.5v-15v-45v-14v-13t-0.5 -11t-2 -10.5t-3.5 -8t-6 -7.5l-9 -4.5t-12 -3.5t-16 -1h-328q-16 0 -25 4t-13 14.5t-4.5 18.5t-0.5 27z" />
<glyph unicode="&#xae;" horiz-adv-x="1656" d="M78 731q0 153 59.5 292.5t159.5 240t239.5 160t292.5 59.5t292.5 -59.5t240 -160t160 -240t59.5 -292.5t-59.5 -292.5t-160 -239.5t-240 -159.5t-292.5 -59.5t-292.5 59.5t-239.5 159.5t-159.5 239.5t-59.5 292.5zM201 731q0 -171 84 -316t228.5 -229t315.5 -84 q128 0 244.5 49.5t201 134t134 201t49.5 244.5t-49.5 244.5t-134 201t-201 134t-244.5 49.5q-171 0 -315.5 -84t-228.5 -229t-84 -316zM526 252q0 12 24.5 21t24.5 20v878q0 12 -24.5 21.5t-24.5 19.5q0 17 15 17h278q177 0 259.5 -78t82.5 -205q0 -97 -52 -170t-120 -92 l8 -4l162 -387q4 -9 26.5 -19t22.5 -22q0 -16 -14 -16h-246q-14 0 -14 16q0 7 8.5 12t18 8t15 11.5t-0.5 23.5l-137 350h-105v-364q0 -11 25.5 -20t25.5 -21q0 -16 -16 -16h-227q-15 0 -15 16zM733 786h88q83 0 129.5 44.5t46.5 115.5t-47.5 112.5t-128.5 41.5h-88v-314z " />
<glyph unicode="&#xaf;" horiz-adv-x="909" d="M211 1197v9v45q0 48 8 60q11 14 35 14h405q8 0 14.5 -1t11.5 -2t9 -4t6.5 -4.5t4 -7.5t2.5 -7.5t1.5 -10t0.5 -11v-13v-13.5v-45v-12.5v-12t-0.5 -10t-1.5 -10t-2.5 -8t-4 -7.5t-6.5 -5.5t-9 -4.5t-11.5 -2t-14.5 -1h-405q-16 0 -25 4t-13 14.5t-4.5 18.5t-0.5 27z" />
<glyph unicode="&#xb0;" horiz-adv-x="1099" d="M260 1188q0 123 91.5 211t219.5 88q129 0 220.5 -88t91.5 -211q0 -124 -92 -213.5t-220 -89.5q-127 0 -219 90t-92 213zM469 1188q0 -45 28.5 -77t73.5 -32q44 0 75.5 32.5t31.5 76.5q0 43 -31.5 74.5t-75.5 31.5q-45 0 -73.5 -31t-28.5 -75z" />
<glyph unicode="&#xb1;" d="M116 43q1 16 1 20v43q0 12 0.5 18.5t2.5 16.5t7 14.5t14 8.5t23 4h774q13 0 21.5 -1t14 -4.5t8.5 -6t4 -9.5l1.5 -10.5t0 -14t-0.5 -16.5v-43q0 -5 0.5 -15t0 -14t-1.5 -11t-4 -10t-8.5 -6.5t-14.5 -5t-21 -1.5h-774q-17 0 -27.5 2t-14.5 10.5t-5.5 11.5t-0.5 19z M116 631q1 16 1 20v43q0 12 0.5 18.5t2.5 16.5t7 14.5t14 8.5t23 4h303v303q0 15 2 24.5t4 14.5t9.5 7.5t10.5 3t16.5 0t18.5 -0.5h43q4 0 17 0.5t16.5 0t12 -3t11 -7.5t5 -15t2.5 -24v-303h303q13 0 21.5 -1t14 -4.5t8.5 -6t4 -9.5l1.5 -10.5t0 -14t-0.5 -16.5v-43 q0 -5 0.5 -15t0 -14t-1.5 -11t-4 -10t-8.5 -6.5t-14.5 -5t-21 -1.5h-303v-303q0 -17 -2 -27.5t-10.5 -14.5t-12 -5.5t-19.5 -0.5t-20 1h-43q-21 0 -31 1.5t-20 12.5t-10 33v303h-303q-17 0 -27.5 2t-14.5 10.5t-5.5 11.5t-0.5 19z" />
<glyph unicode="&#xb4;" horiz-adv-x="909" d="M313 1114q0 24 23 47l250 258q29 29 55 29q21 0 43 -16l68 -46q22 -16 22 -38q0 -29 -29 -54l-284 -241q-23 -19 -45 -19q-14 0 -31 10l-55 39q-17 14 -17 31z" />
<glyph unicode="&#xb6;" horiz-adv-x="808" d="M6 1047q0 89 27 161.5t84 130.5t156 90.5t233 32.5h211q22 0 22 -24q0 -15 -35.5 -29.5t-35.5 -32.5v-1290q0 -12 11 -20t24.5 -11.5t24.5 -11t11 -18.5q0 -25 -22 -25h-330q-22 0 -22 25q0 11 11 18.5t24.5 11t24.5 11.5t11 20v539q-203 13 -316.5 133t-113.5 289z M248 1047q0 -94 47.5 -155.5t140.5 -76.5v453q-90 -12 -139 -71t-49 -150z" />
<glyph unicode="&#xb7;" horiz-adv-x="507" d="M115 541q0 55 41 94t98 39q56 0 97.5 -38.5t41.5 -94.5q0 -54 -41.5 -93.5t-97.5 -39.5q-57 0 -98 39.5t-41 93.5z" />
<glyph unicode="&#xb8;" horiz-adv-x="864" d="M383 -330q0 23 14.5 40.5t32.5 17.5q3 0 41.5 -12.5t77.5 -12.5q80 0 80 43q0 16 -16 25.5t-44 9.5q-37 0 -71 -8.5t-39 -8.5q-39 0 -39 27q0 5 4 21l63 188h131l-49 -125q41 16 82 16q75 0 121.5 -39t46.5 -108q0 -80 -65 -127t-170 -47q-60 0 -110.5 18t-74.5 45 q-16 18 -16 37z" />
<glyph unicode="&#xbb;" horiz-adv-x="1073" d="M61 209q0 21 45 72l195 231l-195 244q-27 33 -36 48.5t-9 29.5q0 28 17.5 45.5t42.5 17.5q31 0 55 -20l322 -261q49 -42 49 -96q0 -56 -53 -100l-318 -260q-19 -19 -57 -19q-26 0 -42 17.5t-16 50.5zM498 209q0 21 45 72l194 231l-194 244q-27 33 -36 48.5t-9 29.5 q0 29 17 46t42 17q31 0 55 -20l322 -261q49 -42 49 -96q0 -56 -53 -100l-318 -260q-19 -19 -57 -19q-26 0 -41.5 17.5t-15.5 50.5z" />
<glyph unicode="&#xbf;" horiz-adv-x="845" d="M41 -70q0 78 21.5 136.5t56 94t76 64.5t83.5 57t76.5 61.5t56 87t21.5 124.5q0 34 7.5 55t23.5 29.5t29.5 11t37.5 2.5q23 0 36.5 -2.5t29.5 -11t23.5 -29.5t7.5 -55q0 -92 -19.5 -161.5t-50.5 -110t-68 -71.5t-74.5 -55t-68.5 -50.5t-50.5 -68.5t-19.5 -99 q0 -93 59 -147t161 -54q148 0 237 82q6 6 8 17t2 20.5t-1 21.5t-1 15q0 24 25 24q12 0 25 -21.5t31 -61.5t28 -58q11 -19 32.5 -50t33.5 -51t12 -30q0 -9 -6 -16t-15 -7q-12 0 -38.5 17.5t-41.5 9.5q-76 -50 -148.5 -75.5t-182.5 -25.5q-215 0 -335 106.5t-120 274.5z M379 915q0 57 44 99.5t105 42.5t104.5 -42.5t43.5 -99.5q0 -59 -43.5 -100t-104.5 -41q-62 0 -105.5 41.5t-43.5 99.5z" />
<glyph unicode="&#xc0;" horiz-adv-x="1148" d="M-82 25q0 16 34.5 30.5t39.5 30.5l436 1290q0 12 -11 20t-25 12t-25 11.5t-11 18.5q0 24 23 24h391q23 0 23 -24q0 -14 -18 -22t-36 -16.5t-18 -23.5l436 -1290q5 -16 39.5 -30.5t34.5 -30.5q0 -25 -23 -25h-364q-23 0 -23 25q0 10 13 18t28 12t25.5 12t7.5 19l-123 373 h-428l-125 -373q-3 -11 7.5 -19t25.5 -12t28 -12t13 -18q0 -25 -23 -25h-329q-23 0 -23 25zM305 1774q0 15 17 26l88 60q11 8 26 8q26 0 64 -27l235 -172q27 -19 27 -43q0 -13 -17 -24l-57 -37q-12 -6 -26 -6q-20 0 -44 12l-282 162q-31 19 -31 41zM408 649h303l-152 453h-4 z" />
<glyph unicode="&#xc1;" horiz-adv-x="1150" d="M-78 25q0 16 34.5 30.5t39.5 30.5l436 1290q0 12 -11 20t-25 12t-25 11.5t-11 18.5q0 24 23 24h391q23 0 23 -24q0 -14 -18 -22t-36 -16.5t-18 -23.5l436 -1290q5 -16 39.5 -30.5t34.5 -30.5q0 -25 -23 -25h-364q-23 0 -23 25q0 10 13 18t28 12t25.5 12t7.5 19l-123 373 h-428l-125 -373q-3 -11 7.5 -19t25.5 -12t28 -12t13 -18q0 -25 -23 -25h-329q-23 0 -23 25zM387 1628q0 22 27 41l235 172q37 27 64 27q15 0 26 -8l88 -60q17 -11 17 -26q0 -22 -31 -41l-283 -162q-24 -12 -43 -12q-14 0 -26 6l-58 37q-16 11 -16 26zM412 649h303l-152 453 h-4z" />
<glyph unicode="&#xc2;" horiz-adv-x="1148" d="M-82 25q0 16 34.5 30.5t39.5 30.5l436 1290q0 12 -11 20t-25 12t-25 11.5t-11 18.5q0 24 23 24h391q23 0 23 -24q0 -14 -18 -22t-36 -16.5t-18 -23.5l436 -1290q5 -16 39.5 -30.5t34.5 -30.5q0 -25 -23 -25h-364q-23 0 -23 25q0 10 13 18t28 12t25.5 12t7.5 19l-123 373 h-428l-125 -373q-3 -11 7.5 -19t25.5 -12t28 -12t13 -18q0 -25 -23 -25h-329q-23 0 -23 25zM270 1630q0 18 19 33l217 188q19 17 69 17q51 0 64 -13l221 -184q21 -17 21 -31q0 -12 -19 -28l-55 -41q-21 -15 -37 -15q-20 0 -47 21l-154 117l-149 -117q-28 -21 -51 -21 q-15 0 -35 13l-47 35q-17 14 -17 26zM408 649h303l-152 453h-4z" />
<glyph unicode="&#xc3;" horiz-adv-x="1148" d="M-82 25q0 16 34.5 30.5t39.5 30.5l436 1290q0 12 -11 20t-25 12t-25 11.5t-11 18.5q0 24 23 24h391q23 0 23 -24q0 -14 -18 -22t-36 -16.5t-18 -23.5l436 -1290q5 -16 39.5 -30.5t34.5 -30.5q0 -25 -23 -25h-364q-23 0 -23 25q0 10 13 18t28 12t25.5 12t7.5 19l-123 373 h-428l-125 -373q-3 -11 7.5 -19t25.5 -12t28 -12t13 -18q0 -25 -23 -25h-329q-23 0 -23 25zM276 1686q0 51 62 112.5t131 61.5q38 0 75.5 -21.5t71 -43t62.5 -21.5q20 0 35.5 13t23.5 34q5 16 15.5 27.5t23.5 11.5q10 0 23 -13l49 -51q10 -13 10 -27q0 -49 -65 -110.5 t-125 -61.5q-38 0 -73 22.5t-67 44.5t-63 22q-55 0 -70 -44q-5 -15 -21 -30t-30 -15q-5 0 -14 9l-43 51q-11 15 -11 29zM408 649h303l-152 453h-4z" />
<glyph unicode="&#xc4;" horiz-adv-x="1148" d="M-82 25q0 16 34.5 30.5t39.5 30.5l436 1290q0 12 -11 20t-25 12t-25 11.5t-11 18.5q0 24 23 24h391q23 0 23 -24q0 -14 -18 -22t-36 -16.5t-18 -23.5l436 -1290q5 -16 39.5 -30.5t34.5 -30.5q0 -25 -23 -25h-364q-23 0 -23 25q0 10 13 18t28 12t25.5 12t7.5 19l-123 373 h-428l-125 -373q-3 -11 7.5 -19t25.5 -12t28 -12t13 -18q0 -25 -23 -25h-329q-23 0 -23 25zM307 1671q0 42 30.5 72.5t70.5 30.5t69 -30t29 -73q0 -39 -29.5 -70.5t-68.5 -31.5t-70 31.5t-31 70.5zM408 649h303l-152 453h-4zM641 1671q0 42 30 72.5t70 30.5t69.5 -30.5 t29.5 -72.5q0 -39 -30 -70.5t-69 -31.5t-69.5 31.5t-30.5 70.5z" />
<glyph unicode="&#xc5;" horiz-adv-x="1148" d="M-82 25q0 16 34.5 30.5t39.5 30.5l436 1290q0 12 -11 20t-25 12t-25 11.5t-11 18.5q0 24 23 24h391q23 0 23 -24q0 -14 -18 -22t-36 -16.5t-18 -23.5l436 -1290q5 -16 39.5 -30.5t34.5 -30.5q0 -25 -23 -25h-364q-23 0 -23 25q0 10 13 18t28 12t25.5 12t7.5 19l-123 373 h-428l-125 -373q-3 -11 7.5 -19t25.5 -12t28 -12t13 -18q0 -25 -23 -25h-329q-23 0 -23 25zM387 1663q0 69 53.5 119.5t126.5 50.5q75 0 130 -50.5t55 -119.5t-55 -119.5t-130 -50.5q-73 0 -126.5 50.5t-53.5 119.5zM408 649h303l-152 453h-4zM502 1663q0 -28 18 -48t47 -20 q30 0 48 19.5t18 48.5q0 28 -18 47t-48 19q-29 0 -47 -19t-18 -47z" />
<glyph unicode="&#xc6;" horiz-adv-x="1613" d="M-133 25q0 13 15 21.5t33.5 17.5t25.5 22l690 1290q3 12 -6 20t-21 12t-22.5 11.5t-10.5 18.5q0 24 25 24h881q14 0 22.5 8t11 17.5t8.5 17.5t17 8q25 0 25 -22v-268q0 -23 -25 -23q-11 0 -18.5 11.5t-11 25.5t-11 25.5t-18.5 11.5h-529l56 -397h342q18 0 31 36.5 t28 36.5q25 0 25 -22v-293q0 -23 -25 -23q-15 0 -28 37t-31 37h-314l70 -498h414q11 0 18.5 11.5t11 25.5t11 25.5t18.5 11.5q24 0 24 -22v-269q0 -22 -24 -22q-11 0 -17 8t-8.5 17.5t-11 17.5t-22.5 8h-717q-23 0 -23 25q0 13 19.5 21t38 16.5t16.5 23.5l-49 373h-434 l-199 -373q-3 -11 8 -19t26 -12t27.5 -12t12.5 -18q0 -25 -23 -25h-330q-22 0 -22 25zM467 649h309l-61 461h-4z" />
<glyph unicode="&#xc7;" horiz-adv-x="1054" d="M63 733q0 161 37.5 296.5t110 239t189 162t264.5 58.5q180 0 319 -94q18 -11 45 5.5t37 16.5q9 0 14.5 -6.5t5.5 -15.5q0 -10 -11 -29.5t-32.5 -51.5t-31.5 -50q-9 -16 -30 -60.5t-36 -68t-26 -23.5q-25 0 -25 25q0 1 0.5 14.5t0.5 22t-2.5 19.5t-8.5 17q-38 44 -98 67 t-121 23q-92 0 -159.5 -43t-106 -122.5t-56.5 -178.5t-18 -223q0 -123 18 -222t56.5 -178.5t106 -123t159.5 -43.5q57 0 117.5 24.5t95.5 61.5q6 6 8.5 17t2.5 20t-0.5 22.5t-0.5 14.5q0 24 24 24q11 0 25.5 -23.5t34.5 -67t30 -60.5q11 -18 32 -49.5t32.5 -51.5t11.5 -30 q0 -9 -5.5 -16t-14.5 -7t-36.5 15.5t-45.5 5.5q-144 -89 -309 -89l-41 -102q41 16 82 16q75 0 121 -39t46 -108q0 -80 -65 -127t-170 -47q-60 0 -110 18t-74 45q-17 19 -17 37q0 23 14.5 40.5t32.5 17.5q3 0 41.5 -12.5t77.5 -12.5q80 0 80 43q0 16 -15.5 25.5t-43.5 9.5 q-37 0 -71.5 -8.5t-39.5 -8.5q-39 0 -39 27q0 5 4 21l60 178q-155 30 -264 136.5t-160.5 261t-51.5 345.5z" />
<glyph unicode="&#xc8;" horiz-adv-x="1048" d="M102 25q0 11 11.5 18.5t25.5 11t25.5 11.5t11.5 20v1290q0 18 -37 32.5t-37 29.5q0 24 23 24h745q14 0 22.5 8t11 17.5t9 17.5t17.5 8q24 0 24 -22v-268q0 -23 -24 -23q-14 0 -22 18.5l-16 37t-22 18.5h-450v-397h319q18 0 31.5 36.5t28.5 36.5q24 0 24 -22v-293 q0 -23 -24 -23q-15 0 -28.5 37t-31.5 37h-319v-498h459q11 0 18.5 11.5t11 25.5t11 25.5t18.5 11.5q25 0 25 -22v-269q0 -22 -25 -22q-11 0 -17 8t-8.5 17.5t-11 17.5t-22.5 8h-754q-23 0 -23 25zM324 1774q0 15 16 26l88 60q11 8 27 8q25 0 63 -27l236 -172q26 -19 26 -43 q0 -13 -16 -24l-57 -37q-12 -6 -27 -6q-19 0 -43 12l-283 162q-30 18 -30 41z" />
<glyph unicode="&#xc9;" horiz-adv-x="1013" d="M68 25q0 11 11.5 18.5t25 11t25 11.5t11.5 20v1290q0 18 -36.5 32.5t-36.5 29.5q0 24 22 24h746q14 0 22.5 8t11 17.5t8.5 17.5t17 8q25 0 25 -22v-268q0 -23 -25 -23q-11 0 -18.5 11.5t-11 25.5t-11 25.5t-18.5 11.5h-451v-397h320q18 0 31 36.5t28 36.5q24 0 24 -22 v-293q0 -23 -24 -23q-15 0 -28 37t-31 37h-320v-498h459q11 0 18.5 11.5t11 25.5t11 25.5t18.5 11.5q25 0 25 -22v-269q0 -22 -25 -22q-11 0 -17 8t-8.5 17.5t-11 17.5t-22.5 8h-754q-22 0 -22 25zM379 1628q0 22 27 41l235 172q37 27 64 27q15 0 26 -8l88 -60 q17 -11 17 -26q0 -22 -31 -41l-283 -162q-24 -12 -43 -12q-14 0 -26 6l-58 37q-16 11 -16 26z" />
<glyph unicode="&#xca;" horiz-adv-x="1048" d="M102 25q0 11 11.5 18.5t25.5 11t25.5 11.5t11.5 20v1290q0 18 -37 32.5t-37 29.5q0 24 23 24h745q14 0 22.5 8t11 17.5t9 17.5t17.5 8q24 0 24 -22v-268q0 -23 -24 -23q-14 0 -22 18.5l-16 37t-22 18.5h-450v-397h319q18 0 31.5 36.5t28.5 36.5q24 0 24 -22v-293 q0 -23 -24 -23q-15 0 -28.5 37t-31.5 37h-319v-498h459q11 0 18.5 11.5t11 25.5t11 25.5t18.5 11.5q25 0 25 -22v-269q0 -22 -25 -22q-11 0 -17 8t-8.5 17.5t-11 17.5t-22.5 8h-754q-23 0 -23 25zM240 1630q0 19 18 33l217 188q19 17 70 17q50 0 63 -13l221 -184 q21 -17 21 -31q0 -12 -19 -28l-55 -41q-21 -15 -37 -15q-20 0 -47 21l-153 117l-150 -117q-28 -21 -51 -21q-16 0 -35 13l-47 35q-16 13 -16 26z" />
<glyph unicode="&#xcb;" horiz-adv-x="1048" d="M102 25q0 11 11.5 18.5t25.5 11t25.5 11.5t11.5 20v1290q0 18 -37 32.5t-37 29.5q0 24 23 24h745q14 0 22.5 8t11 17.5t9 17.5t17.5 8q24 0 24 -22v-268q0 -23 -24 -23q-14 0 -22 18.5l-16 37t-22 18.5h-450v-397h319q18 0 31.5 36.5t28.5 36.5q24 0 24 -22v-293 q0 -23 -24 -23q-15 0 -28.5 37t-31.5 37h-319v-498h459q11 0 18.5 11.5t11 25.5t11 25.5t18.5 11.5q25 0 25 -22v-269q0 -22 -25 -22q-11 0 -17 8t-8.5 17.5t-11 17.5t-22.5 8h-754q-23 0 -23 25zM297 1671q0 42 30 72.5t70 30.5t69.5 -30.5t29.5 -72.5q0 -39 -30 -70.5 t-69 -31.5t-69.5 31.5t-30.5 70.5zM631 1671q0 42 30 72.5t70 30.5t69 -30t29 -73q0 -39 -29.5 -70.5t-68.5 -31.5t-69.5 31.5t-30.5 70.5z" />
<glyph unicode="&#xcc;" horiz-adv-x="593" d="M63 1774q0 15 17 26l88 60q11 8 27 8q25 0 63 -27l236 -172q26 -19 26 -43q0 -13 -16 -24l-58 -37q-12 -6 -26 -6q-19 0 -43 12l-283 162q-31 19 -31 41zM102 25q0 11 11 18.5t25 11t25 11.5t11 20v1290q0 18 -36 32.5t-36 29.5q0 24 23 24h344q23 0 23 -24 q0 -15 -36 -29.5t-36 -32.5v-1290q0 -12 11 -20t25 -11.5t25 -11t11 -18.5q0 -25 -23 -25h-344q-23 0 -23 25z" />
<glyph unicode="&#xcd;" horiz-adv-x="593" d="M102 25q0 11 11 18.5t25 11t25 11.5t11 20v1290q0 18 -36 32.5t-36 29.5q0 24 23 24h344q23 0 23 -24q0 -15 -36 -29.5t-36 -32.5v-1290q0 -12 11 -20t25 -11.5t25 -11t11 -18.5q0 -25 -23 -25h-344q-23 0 -23 25zM143 1628q0 22 27 41l236 172q37 27 63 27q16 0 27 -8 l88 -60q16 -11 16 -26q0 -22 -31 -41l-282 -162q-24 -12 -43 -12q-15 0 -27 6l-57 37q-17 11 -17 26z" />
<glyph unicode="&#xce;" horiz-adv-x="593" d="M-8 1630q0 19 18 33l217 188q19 17 70 17q50 0 63 -13l222 -184q20 -16 20 -31q0 -13 -18 -28l-56 -41q-21 -15 -36 -15q-21 0 -48 21l-153 117l-150 -117q-28 -21 -51 -21q-16 0 -35 13l-47 35q-16 13 -16 26zM102 25q0 11 11 18.5t25 11t25 11.5t11 20v1290 q0 18 -36 32.5t-36 29.5q0 24 23 24h344q23 0 23 -24q0 -15 -36 -29.5t-36 -32.5v-1290q0 -12 11 -20t25 -11.5t25 -11t11 -18.5q0 -25 -23 -25h-344q-23 0 -23 25z" />
<glyph unicode="&#xcf;" horiz-adv-x="593" d="M33 1671q0 42 30 72.5t70 30.5t69 -30t29 -73q0 -39 -29.5 -70.5t-68.5 -31.5t-69.5 31.5t-30.5 70.5zM102 25q0 11 11 18.5t25 11t25 11.5t11 20v1290q0 18 -36 32.5t-36 29.5q0 24 23 24h344q23 0 23 -24q0 -15 -36 -29.5t-36 -32.5v-1290q0 -12 11 -20t25 -11.5 t25 -11t11 -18.5q0 -25 -23 -25h-344q-23 0 -23 25zM367 1671q0 42 30 72.5t70 30.5t69 -30t29 -73q0 -39 -29.5 -70.5t-68.5 -31.5t-69.5 31.5t-30.5 70.5z" />
<glyph unicode="&#xd0;" horiz-adv-x="1282" d="M31 721v8v45q0 47 9 59q11 15 40 15h96v528q0 18 -37 32.5t-37 29.5q0 24 23 24h487q119 0 218.5 -36.5t170.5 -102.5t120 -157.5t72.5 -201t23.5 -233.5q0 -155 -38 -286.5t-111.5 -231.5t-190.5 -156.5t-265 -56.5h-487q-23 0 -23 25q0 11 11.5 18.5t25.5 11t25.5 11.5 t11.5 20v569h-96q-18 0 -28.5 4t-15 15t-5 19.5t-0.5 27.5zM420 190h192q93 0 161 41t107.5 116.5t57.5 170.5t18 213q0 119 -18 214t-57.5 170t-107.5 116t-161 41h-192v-424h112q21 0 32.5 -3.5t16.5 -13.5t6 -18t1 -29v-10v-45v-9q0 -18 -1 -27t-5.5 -19.5t-17 -14.5 t-32.5 -4h-112v-465z" />
<glyph unicode="&#xd1;" horiz-adv-x="1261" d="M84 25q0 11 11 18.5t25 11t25 11.5t11 20v1290q0 18 -36 32.5t-36 29.5q0 24 20 24h342q23 0 23 -24q0 -12 -23.5 -22.5t-41.5 -22t-7 -29.5l498 -844h6v856q0 18 -36 32.5t-36 29.5q0 24 23 24h315q23 0 23 -24q0 -15 -37 -29.5t-37 -32.5v-1290q0 -12 11.5 -20 t25.5 -11.5t25.5 -11t11.5 -18.5q0 -25 -23 -25h-336q-22 0 -22 25q0 11 15 19.5t32 13.5t26.5 16t0.5 26l-508 842h-4v-856q0 -12 11 -20t24.5 -11.5t24.5 -11t11 -18.5q0 -25 -22 -25h-316q-20 0 -20 25zM365 1686q0 52 61.5 113t130.5 61q38 0 75.5 -21.5t71 -43 t62.5 -21.5q20 0 35.5 13t23.5 34q5 16 15.5 27.5t23.5 11.5q10 0 23 -13l49 -51q10 -13 10 -27q0 -49 -65 -110.5t-125 -61.5q-38 0 -73 22.5t-67 44.5t-63 22q-55 0 -70 -44q-5 -15 -21 -30t-30 -15q-5 0 -14 9l-43 51q-10 13 -10 29z" />
<glyph unicode="&#xd2;" horiz-adv-x="1331" d="M70 733q0 161 36.5 296.5t108.5 239t187.5 162t263.5 58.5t264 -58.5t188 -162t109 -239t37 -296.5q0 -127 -23 -239.5t-71 -208t-118 -163.5t-168.5 -106.5t-217.5 -38.5q-148 0 -263.5 58.5t-187.5 162.5t-108.5 239.5t-36.5 295.5zM328 733q0 -123 17.5 -222 t55.5 -178.5t105.5 -123t159.5 -43.5t159.5 43.5t106 123t56.5 178.5t18 222q0 124 -18 223t-56.5 178.5t-106 122.5t-159.5 43q-74 0 -132.5 -29t-96.5 -79t-63 -122.5t-35.5 -155.5t-10.5 -181zM434 1774q0 15 17 26l88 60q11 8 26 8q27 0 64 -27l235 -172q27 -19 27 -41 q0 -15 -17 -26l-57 -37q-12 -6 -26 -6q-19 0 -43 12l-283 162q-31 19 -31 41z" />
<glyph unicode="&#xd3;" horiz-adv-x="1331" d="M70 733q0 161 36.5 296.5t108.5 239t187.5 162t263.5 58.5t264 -58.5t188 -162t109 -239t37 -296.5q0 -127 -23 -239.5t-71 -208t-118 -163.5t-168.5 -106.5t-217.5 -38.5q-148 0 -263.5 58.5t-187.5 162.5t-108.5 239.5t-36.5 295.5zM328 733q0 -123 17.5 -222 t55.5 -178.5t105.5 -123t159.5 -43.5t159.5 43.5t106 123t56.5 178.5t18 222q0 124 -18 223t-56.5 178.5t-106 122.5t-159.5 43q-74 0 -132.5 -29t-96.5 -79t-63 -122.5t-35.5 -155.5t-10.5 -181zM469 1628q0 22 27 41l235 172q37 27 64 27q15 0 26 -8l88 -60q17 -11 17 -26 q0 -22 -31 -41l-283 -162q-24 -12 -43 -12q-14 0 -26 6l-58 37q-16 11 -16 26z" />
<glyph unicode="&#xd4;" horiz-adv-x="1331" d="M70 733q0 161 36.5 296.5t108.5 239t187.5 162t263.5 58.5t264 -58.5t188 -162t109 -239t37 -296.5q0 -127 -23 -239.5t-71 -208t-118 -163.5t-168.5 -106.5t-217.5 -38.5q-148 0 -263.5 58.5t-187.5 162.5t-108.5 239.5t-36.5 295.5zM328 733q0 -123 17.5 -222 t55.5 -178.5t105.5 -123t159.5 -43.5t159.5 43.5t106 123t56.5 178.5t18 222q0 124 -18 223t-56.5 178.5t-106 122.5t-159.5 43q-74 0 -132.5 -29t-96.5 -79t-63 -122.5t-35.5 -155.5t-10.5 -181zM360 1630q0 18 19 33l217 188q19 17 70 17q50 0 63 -13l221 -184 q21 -17 21 -31q0 -12 -19 -28l-55 -41q-21 -15 -37 -15q-20 0 -47 21l-154 117l-149 -117q-28 -21 -51 -21q-16 0 -35 13l-47 35q-17 14 -17 26z" />
<glyph unicode="&#xd5;" horiz-adv-x="1329" d="M70 733q0 161 36.5 296.5t108.5 239t187.5 162t263.5 58.5t264 -58.5t188 -162t109 -239t37 -296.5q0 -127 -23 -239.5t-71 -208t-118 -163.5t-168.5 -106.5t-217.5 -38.5q-148 0 -263.5 58.5t-187.5 162.5t-108.5 239.5t-36.5 295.5zM328 733q0 -123 17.5 -222 t55.5 -178.5t105.5 -123t159.5 -43.5t159.5 43.5t106 123t56.5 178.5t18 222q0 124 -18 223t-56.5 178.5t-106 122.5t-159.5 43q-74 0 -132.5 -29t-96.5 -79t-63 -122.5t-35.5 -155.5t-10.5 -181zM387 1686q0 51 62 112.5t131 61.5q38 0 75.5 -21.5t70.5 -43t62 -21.5 q20 0 36 13t24 34q5 16 15.5 27.5t23.5 11.5q9 0 22 -13l49 -51q11 -15 11 -27q0 -49 -65.5 -110.5t-125.5 -61.5q-38 0 -73 22.5t-67 44.5t-63 22q-54 0 -69 -44q-5 -15 -21 -30t-30 -15q-6 0 -15 9l-43 51q-10 13 -10 29z" />
<glyph unicode="&#xd6;" horiz-adv-x="1329" d="M70 733q0 161 36.5 296.5t108.5 239t187.5 162t263.5 58.5t264 -58.5t188 -162t109 -239t37 -296.5q0 -127 -23 -239.5t-71 -208t-118 -163.5t-168.5 -106.5t-217.5 -38.5q-148 0 -263.5 58.5t-187.5 162.5t-108.5 239.5t-36.5 295.5zM328 733q0 -123 17.5 -222 t55.5 -178.5t105.5 -123t159.5 -43.5t159.5 43.5t106 123t56.5 178.5t18 222q0 124 -18 223t-56.5 178.5t-106 122.5t-159.5 43q-74 0 -132.5 -29t-96.5 -79t-63 -122.5t-35.5 -155.5t-10.5 -181zM401 1671q0 42 30.5 72.5t70.5 30.5t69 -30t29 -73q0 -39 -29.5 -70.5 t-68.5 -31.5t-70 31.5t-31 70.5zM735 1671q0 42 30.5 72.5t70.5 30.5t69 -30t29 -73q0 -39 -29.5 -70.5t-68.5 -31.5t-70 31.5t-31 70.5z" />
<glyph unicode="&#xd8;" horiz-adv-x="1329" d="M76 733q0 161 36 296.5t106.5 239t185 162t262.5 58.5q161 0 282 -70l29 43q13 19 25 28.5t32 9.5t45 -15l49 -29q29 -15 37 -41.5t-10 -56.5l-49 -78q151 -203 151 -547q0 -128 -22 -240t-69.5 -207.5t-116 -163.5t-166.5 -106.5t-217 -38.5q-197 0 -336 105l-51 -82 q-18 -27 -45 -32.5t-60 12.5l-45 26q-65 40 -29 98l88 138q-112 190 -112 491zM322 733q0 -131 22 -250l496 764q-71 53 -174 53q-92 0 -160 -43t-107.5 -122t-58 -179t-18.5 -223zM446 260q84 -94 220 -94q92 0 160.5 43.5t108 122.5t58.5 178.5t19 222.5q0 198 -47 332z " />
<glyph unicode="&#xd9;" horiz-adv-x="1323" d="M82 1438q0 24 22 24h345q22 0 22 -24q0 -15 -36 -29.5t-36 -32.5v-913q0 -144 65 -213.5t210 -69.5t208.5 69.5t63.5 213.5v913q0 18 -36 32.5t-36 29.5q0 24 23 24h322q22 0 22 -24q0 -15 -36 -29.5t-36 -32.5v-913q0 -230 -121.5 -358t-373.5 -128q-256 0 -388 129.5 t-132 356.5v913q0 18 -36 32.5t-36 29.5zM438 1774q0 15 17 26l88 60q11 8 26 8q27 0 64 -27l235 -172q27 -19 27 -43q0 -13 -16 -24l-58 -37q-12 -6 -26 -6q-19 0 -43 12l-283 162q-31 19 -31 41z" />
<glyph unicode="&#xda;" horiz-adv-x="1323" d="M82 1438q0 24 22 24h345q22 0 22 -24q0 -15 -36 -29.5t-36 -32.5v-913q0 -144 65 -213.5t210 -69.5t208.5 69.5t63.5 213.5v913q0 18 -36 32.5t-36 29.5q0 24 23 24h322q22 0 22 -24q0 -15 -36 -29.5t-36 -32.5v-913q0 -230 -121.5 -358t-373.5 -128q-256 0 -388 129.5 t-132 356.5v913q0 18 -36 32.5t-36 29.5zM518 1628q0 22 27 41l235 172q37 27 64 27q15 0 26 -8l88 -60q17 -11 17 -26q0 -22 -31 -41l-282 -162q-24 -12 -44 -12q-14 0 -26 6l-57 37q-17 11 -17 26z" />
<glyph unicode="&#xdb;" horiz-adv-x="1323" d="M82 1438q0 24 22 24h345q22 0 22 -24q0 -15 -36 -29.5t-36 -32.5v-913q0 -144 65 -213.5t210 -69.5t208.5 69.5t63.5 213.5v913q0 18 -36 32.5t-36 29.5q0 24 23 24h322q22 0 22 -24q0 -15 -36 -29.5t-36 -32.5v-913q0 -230 -121.5 -358t-373.5 -128q-256 0 -388 129.5 t-132 356.5v913q0 18 -36 32.5t-36 29.5zM369 1630q0 19 18 33l217 188q19 17 70 17q50 0 63 -13l221 -184q21 -17 21 -31q0 -13 -18 -28l-56 -41q-21 -15 -37 -15q-20 0 -47 21l-153 117l-150 -117q-28 -21 -51 -21q-15 0 -35 13l-47 35q-16 13 -16 26z" />
<glyph unicode="&#xdc;" horiz-adv-x="1300" d="M82 1438q0 24 22 24h345q22 0 22 -24q0 -15 -36 -29.5t-36 -32.5v-913q0 -144 65 -213.5t210 -69.5t208.5 69.5t63.5 213.5v913q0 18 -36 32.5t-36 29.5q0 24 23 24h322q22 0 22 -24q0 -15 -36 -29.5t-36 -32.5v-913q0 -230 -121.5 -358t-373.5 -128q-256 0 -388 129.5 t-132 356.5v913q0 18 -36 32.5t-36 29.5zM416 1671q0 42 30 72.5t70 30.5t69 -30t29 -73q0 -39 -29.5 -70.5t-68.5 -31.5t-69.5 31.5t-30.5 70.5zM750 1671q0 42 30 72.5t70 30.5t69 -30t29 -73q0 -39 -29.5 -70.5t-68.5 -31.5t-69.5 31.5t-30.5 70.5z" />
<glyph unicode="&#xdd;" horiz-adv-x="1054" d="M-92 1438q0 24 22 24h385q23 0 23 -24q0 -10 -12.5 -18t-27 -12.5t-25 -12.5t-7.5 -19l275 -420l280 420q3 11 -7 19t-24.5 12.5t-27 12.5t-12.5 18q0 24 22 24h352q23 0 23 -24q0 -17 -32 -33.5t-40 -28.5l-424 -637v-657q0 -12 10.5 -20t23.5 -12t23.5 -11.5 t10.5 -18.5q0 -20 -23 -20h-336q-22 0 -22 20q0 14 17 22t34 16.5t17 23.5v645l-426 649q-7 11 -39.5 28t-32.5 34zM379 1628q0 22 27 41l235 172q37 27 64 27q15 0 26 -8l88 -60q17 -11 17 -26q0 -22 -31 -41l-283 -162q-24 -12 -43 -12q-14 0 -26 6l-58 37q-16 11 -16 26z " />
<glyph unicode="&#xde;" horiz-adv-x="1032" d="M102 25q0 11 11 18.5t25 11t25 11.5t11 20v1290q0 18 -36 32.5t-36 29.5q0 24 23 24h344q23 0 23 -24q0 -15 -36 -29.5t-36 -32.5v-190h115q134 0 234 -32.5t158.5 -91t86.5 -131.5t28 -161q0 -181 -120 -302.5t-330 -121.5h-172v-260q0 -12 11 -20t25 -11.5t25 -11 t11 -18.5q0 -25 -23 -25h-344q-23 0 -23 25zM420 535h117q122 0 186.5 65t64.5 170q0 104 -65.5 164.5t-185.5 60.5h-117v-460z" />
<glyph unicode="&#xdf;" horiz-adv-x="1083" d="M61 772q0 13 21 33.5t42 49t21 63.5v235q0 174 107 271.5t293 97.5q173 0 275 -98.5t102 -270.5q0 -107 -58 -188t-137 -115v-8q43 -10 93 -46.5t96 -91.5t76 -134t30 -162q0 -134 -56.5 -233.5t-147.5 -148.5t-202 -49q-79 0 -123 17t-44 43v217q0 11 8 20t18 9 q29 0 29 -37t24.5 -56.5t87.5 -19.5q73 0 114.5 62.5t41.5 175.5q0 72 -21 130.5t-52.5 93.5t-70.5 59t-72 33t-60 9q-14 0 -23.5 4t-14.5 7.5t-7 15t-2.5 16.5t0 22t0.5 23t-1 23t-0.5 25t3.5 19.5t11.5 18t22.5 8.5q93 18 148 80t55 158q0 81 -38 134.5t-105 53.5 q-91 0 -125.5 -44.5t-34.5 -143.5v-1067q0 -36 -18 -61t-56 -25h-215q-22 0 -22 25q0 11 11 18.5t24.5 11t24.5 11.5t11 20v659h-51q-33 0 -33 27z" />
<glyph unicode="&#xe0;" horiz-adv-x="968" d="M61 285q0 87 45 155t122.5 109t168.5 63.5t195 28.5q-9 77 -47.5 109t-114.5 32q-54 0 -115 -25.5t-61 -54.5q0 -6 1 -20t1 -23q0 -14 -7.5 -21t-17.5 -7q-9 0 -21.5 19t-32.5 59t-30 57t-30.5 44.5t-33.5 46t-13 26.5q0 20 22 20q10 0 31 -14.5t31 -14.5q2 0 12 5 q113 77 266 77q203 0 304.5 -86.5t101.5 -289.5v-494q0 -15 17 -23t34.5 -16t17.5 -22q0 -27 -22 -27q-36 0 -106 1t-99 1t-38 20t-11 66q-40 -50 -104.5 -80.5t-135.5 -30.5q-152 0 -241 83.5t-89 226.5zM219 1348q0 21 23 38l67 46q22 16 43 16q27 0 56 -29l249 -258 q23 -23 23 -47q0 -18 -16 -31l-56 -39q-17 -10 -30 -10q-23 0 -46 19l-284 241q-29 25 -29 54zM303 291q0 -131 135 -131q66 0 112 36.5t46 90.5v182q-62 -4 -110.5 -14t-92 -29.5t-67 -53.5t-23.5 -81z" />
<glyph unicode="&#xe1;" horiz-adv-x="968" d="M61 285q0 87 45 155t122.5 109t168.5 63.5t195 28.5q-9 77 -47.5 109t-114.5 32q-54 0 -115 -25.5t-61 -54.5q0 -6 1 -20t1 -23q0 -14 -7.5 -21t-17.5 -7q-9 0 -21.5 19t-32.5 59t-30 57t-30.5 44.5t-33.5 46t-13 26.5q0 20 22 20q10 0 31 -14.5t31 -14.5q2 0 12 5 q113 77 266 77q203 0 304.5 -86.5t101.5 -289.5v-494q0 -15 17 -23t34.5 -16t17.5 -22q0 -27 -22 -27q-36 0 -106 1t-99 1t-38 20t-11 66q-40 -50 -104.5 -80.5t-135.5 -30.5q-152 0 -241 83.5t-89 226.5zM266 1114q0 24 23 47l250 258q29 29 55 29q21 0 43 -16l68 -46 q22 -16 22 -38q0 -29 -29 -54l-284 -241q-23 -19 -45 -19q-14 0 -31 10l-55 39q-17 14 -17 31zM303 291q0 -131 135 -131q66 0 112 36.5t46 90.5v182q-62 -4 -110.5 -14t-92 -29.5t-67 -53.5t-23.5 -81z" />
<glyph unicode="&#xe2;" horiz-adv-x="968" d="M61 285q0 87 45 155t122.5 109t168.5 63.5t195 28.5q-9 77 -47.5 109t-114.5 32q-54 0 -115 -25.5t-61 -54.5q0 -6 1 -20t1 -23q0 -14 -7.5 -21t-17.5 -7q-9 0 -21.5 19t-32.5 59t-30 57t-30.5 44.5t-33.5 46t-13 26.5q0 20 22 20q10 0 31 -14.5t31 -14.5q2 0 12 5 q113 77 266 77q203 0 304.5 -86.5t101.5 -289.5v-494q0 -15 17 -23t34.5 -16t17.5 -22q0 -27 -22 -27q-36 0 -106 1t-99 1t-38 20t-11 66q-40 -50 -104.5 -80.5t-135.5 -30.5q-152 0 -241 83.5t-89 226.5zM174 1118q0 22 16 41l207 264q12 17 30.5 22t53.5 5t53.5 -5 t30.5 -22l207 -264q16 -19 16 -41q0 -28 -22 -37l-61 -28q-12 -6 -23 -6q-25 0 -51 26l-156 164l-158 -164q-26 -26 -51 -26q-10 0 -22 6l-47 28q-23 13 -23 37zM303 291q0 -131 135 -131q66 0 112 36.5t46 90.5v182q-62 -4 -110.5 -14t-92 -29.5t-67 -53.5t-23.5 -81z" />
<glyph unicode="&#xe3;" horiz-adv-x="968" d="M61 285q0 87 45 155t122.5 109t168.5 63.5t195 28.5q-9 77 -47.5 109t-114.5 32q-54 0 -115 -25.5t-61 -54.5q0 -6 1 -20t1 -23q0 -14 -7.5 -21t-17.5 -7q-9 0 -21.5 19t-32.5 59t-30 57t-30.5 44.5t-33.5 46t-13 26.5q0 20 22 20q10 0 31 -14.5t31 -14.5q2 0 12 5 q113 77 266 77q203 0 304.5 -86.5t101.5 -289.5v-494q0 -15 17 -23t34.5 -16t17.5 -22q0 -27 -22 -27q-36 0 -106 1t-99 1t-38 20t-11 66q-40 -50 -104.5 -80.5t-135.5 -30.5q-152 0 -241 83.5t-89 226.5zM156 1169q0 63 69 138t148 75q34 0 68 -18.5t57.5 -40.5t53.5 -40.5 t56 -18.5q49 0 78 84q3 14 12.5 23t20.5 9q12 0 24 -12l54 -63q12 -15 12 -41q0 -60 -61.5 -128.5t-126.5 -68.5q-47 0 -86 19t-61 41.5t-50 41.5t-55 19q-34 0 -59 -26t-38 -66q-10 -27 -36 -27q-18 0 -31 16l-39 52q-10 13 -10 32zM303 291q0 -131 135 -131q66 0 112 36.5 t46 90.5v182q-62 -4 -110.5 -14t-92 -29.5t-67 -53.5t-23.5 -81z" />
<glyph unicode="&#xe4;" horiz-adv-x="968" d="M61 285q0 87 45 155t122.5 109t168.5 63.5t195 28.5q-9 77 -47.5 109t-114.5 32q-54 0 -115 -25.5t-61 -54.5q0 -6 1 -20t1 -23q0 -14 -7.5 -21t-17.5 -7q-9 0 -21.5 19t-32.5 59t-30 57t-30.5 44.5t-33.5 46t-13 26.5q0 20 22 20q10 0 31 -14.5t31 -14.5q2 0 12 5 q113 77 266 77q203 0 304.5 -86.5t101.5 -289.5v-494q0 -15 17 -23t34.5 -16t17.5 -22q0 -27 -22 -27q-36 0 -106 1t-99 1t-38 20t-11 66q-40 -50 -104.5 -80.5t-135.5 -30.5q-152 0 -241 83.5t-89 226.5zM158 1227q0 54 35.5 90.5t85.5 36.5q48 0 83 -37t35 -90 q0 -48 -35.5 -87.5t-82.5 -39.5q-49 0 -85 39.5t-36 87.5zM303 291q0 -131 135 -131q66 0 112 36.5t46 90.5v182q-62 -4 -110.5 -14t-92 -29.5t-67 -53.5t-23.5 -81zM539 1227q0 54 35 90.5t85 36.5q48 0 83.5 -37t35.5 -90q0 -48 -36 -87.5t-83 -39.5q-48 0 -84 39.5 t-36 87.5z" />
<glyph unicode="&#xe5;" horiz-adv-x="968" d="M61 285q0 87 45 155t122.5 109t168.5 63.5t195 28.5q-9 77 -47.5 109t-114.5 32q-54 0 -115 -25.5t-61 -54.5q0 -6 1 -20t1 -23q0 -14 -7.5 -21t-17.5 -7q-9 0 -21.5 19t-32.5 59t-30 57t-30.5 44.5t-33.5 46t-13 26.5q0 20 22 20q10 0 31 -14.5t31 -14.5q2 0 12 5 q113 77 266 77q203 0 304.5 -86.5t101.5 -289.5v-494q0 -15 17 -23t34.5 -16t17.5 -22q0 -27 -22 -27q-36 0 -106 1t-99 1t-38 20t-11 66q-40 -50 -104.5 -80.5t-135.5 -30.5q-152 0 -241 83.5t-89 226.5zM256 1257q0 90 63 155t152 65t153 -65t64 -155q0 -89 -64 -154 t-153 -65t-152 64.5t-63 154.5zM303 291q0 -131 135 -131q66 0 112 36.5t46 90.5v182q-62 -4 -110.5 -14t-92 -29.5t-67 -53.5t-23.5 -81zM393 1257q0 -36 22 -61t56 -25t56 25t22 61t-21.5 60t-56.5 24t-56.5 -24t-21.5 -60z" />
<glyph unicode="&#xe6;" horiz-adv-x="1476" d="M61 285q0 87 45 155t122.5 109t168.5 63.5t195 28.5q-9 77 -47 106t-115 29q-48 0 -98.5 -18.5t-69.5 -38.5q-7 -5 -8.5 -13.5t0.5 -26t2 -26.5q0 -14 -7.5 -21t-17.5 -7q-6 0 -13.5 8t-16.5 23.5t-16.5 30.5t-19 37.5t-18.5 35.5q-11 20 -31.5 48.5t-33 47.5t-12.5 27 q0 20 22 20q9 0 34.5 -17t39.5 -7q47 36 122 56.5t144 20.5q227 0 318 -108q121 108 297 108q100 0 173.5 -35t113 -93t57.5 -121t18 -132q0 -36 13.5 -57.5t13.5 -30.5q0 -26 -27 -26h-569q1 -86 20 -151t66.5 -108.5t120.5 -43.5q95 0 137 45q6 6 8.5 17t2.5 19.5t-0.5 22 t-0.5 14.5q0 25 25 25q12 0 24.5 -22t28.5 -60.5t28 -58.5q10 -17 31.5 -49.5t32 -52t10.5 -29.5q0 -23 -16 -23q-11 0 -39.5 16.5t-44.5 6.5q-80 -54 -227 -54q-198 0 -324 136q-49 -63 -142.5 -99.5t-189.5 -36.5q-152 0 -241 83.5t-89 226.5zM303 291q0 -131 113 -131 q62 0 121 29.5t59 78.5v201q-62 -4 -110.5 -14t-92 -29.5t-67 -53.5t-23.5 -81zM864 625h318q-12 157 -135 157q-66 0 -115.5 -40.5t-67.5 -116.5z" />
<glyph unicode="&#xe7;" horiz-adv-x="870" d="M61 469q0 136 54.5 246t159 175.5t241.5 65.5q71 0 132.5 -15t90.5 -38q6 -4 17 -4q12 0 32.5 13.5t30.5 13.5q9 0 15 -7t6 -16q0 -10 -10.5 -29.5t-32 -52t-31.5 -49.5q-12 -20 -29.5 -58.5t-30 -60.5t-22.5 -22q-25 0 -25 24q0 66 -10 74q-57 45 -133 45 q-53 0 -92.5 -24t-62.5 -67t-33.5 -96t-10.5 -118q0 -66 10.5 -120.5t33.5 -98t62.5 -68t92.5 -24.5q76 0 133 45q7 6 8.5 19t1.5 54q0 25 25 25q10 0 22.5 -22t30 -60.5t29.5 -58.5q10 -17 31.5 -49.5t32 -52t10.5 -29.5q0 -9 -6 -16t-15 -7q-10 0 -30.5 13.5t-32.5 13.5 q-11 0 -17 -4q-30 -22 -88 -37.5t-127 -16.5l-39 -100q41 16 82 16q75 0 121.5 -39t46.5 -108q0 -80 -65 -127t-170 -47q-60 0 -110.5 18t-74.5 45q-16 18 -16 37q0 23 14.5 40.5t32.5 17.5q3 0 41.5 -12.5t77.5 -12.5q80 0 80 43q0 16 -16 25.5t-44 9.5q-37 0 -71 -8.5 t-39 -8.5q-39 0 -39 27q0 5 4 21l59 178q-156 38 -247 169t-91 310z" />
<glyph unicode="&#xe8;" horiz-adv-x="935" d="M61 469q0 208 126 347.5t333 139.5q80 0 144.5 -23.5t104.5 -61.5t66.5 -89t37 -102t10.5 -105q0 -36 13 -57.5t13 -30.5q0 -26 -26 -26h-568q2 -135 50.5 -219t154.5 -84q95 0 137 45q11 11 11 73q0 25 24 25q12 0 25 -21.5t30 -61.5t27 -58q11 -20 31.5 -51t31.5 -50.5 t11 -29.5q0 -9 -5 -16t-12 -7q-11 0 -33 13.5t-34 13.5q-10 0 -16 -4q-80 -54 -228 -54q-207 0 -333 141.5t-126 352.5zM254 1348q0 22 22 38l68 46q22 16 43 16q26 0 55 -29l250 -258q23 -23 23 -47q0 -17 -17 -31l-55 -39q-17 -10 -31 -10q-22 0 -45 19l-284 241 q-29 25 -29 54zM338 625h326q-3 76 -41.5 118.5t-102.5 42.5q-66 0 -115.5 -42.5t-66.5 -118.5z" />
<glyph unicode="&#xe9;" horiz-adv-x="935" d="M61 469q0 208 126 347.5t333 139.5q80 0 144.5 -23.5t104.5 -61.5t66.5 -89t37 -102t10.5 -105q0 -36 13 -57.5t13 -30.5q0 -26 -26 -26h-568q2 -135 50.5 -219t154.5 -84q95 0 137 45q11 11 11 73q0 25 24 25q12 0 25 -21.5t30 -61.5t27 -58q11 -20 31.5 -51t31.5 -50.5 t11 -29.5q0 -9 -5 -16t-12 -7q-11 0 -33 13.5t-34 13.5q-10 0 -16 -4q-80 -54 -228 -54q-207 0 -333 141.5t-126 352.5zM297 1114q0 25 22 47l250 258q29 29 56 29q21 0 43 -16l67 -46q23 -17 23 -38q0 -29 -29 -54l-285 -241q-23 -19 -45 -19q-13 0 -30 10l-56 39 q-16 13 -16 31zM338 625h326q-3 76 -41.5 118.5t-102.5 42.5q-66 0 -115.5 -42.5t-66.5 -118.5z" />
<glyph unicode="&#xea;" horiz-adv-x="935" d="M61 469q0 208 126 347.5t333 139.5q80 0 144.5 -23.5t104.5 -61.5t66.5 -89t37 -102t10.5 -105q0 -36 13 -57.5t13 -30.5q0 -26 -26 -26h-568q2 -135 50.5 -219t154.5 -84q95 0 137 45q11 11 11 73q0 25 24 25q12 0 25 -21.5t30 -61.5t27 -58q11 -20 31.5 -51t31.5 -50.5 t11 -29.5q0 -9 -5 -16t-12 -7q-11 0 -33 13.5t-34 13.5q-10 0 -16 -4q-80 -54 -228 -54q-207 0 -333 141.5t-126 352.5zM223 1118q0 21 17 41l206 264q12 17 30.5 22t53.5 5t53.5 -5t30.5 -22l207 -264q17 -20 17 -41q0 -27 -23 -37l-61 -28q-12 -6 -23 -6q-25 0 -51 26 l-156 164l-157 -164q-26 -26 -52 -26q-10 0 -22 6l-47 28q-23 13 -23 37zM338 625h326q-3 76 -41.5 118.5t-102.5 42.5q-66 0 -115.5 -42.5t-66.5 -118.5z" />
<glyph unicode="&#xeb;" horiz-adv-x="935" d="M61 469q0 208 126 347.5t333 139.5q80 0 144.5 -23.5t104.5 -61.5t66.5 -89t37 -102t10.5 -105q0 -36 13 -57.5t13 -30.5q0 -26 -26 -26h-568q2 -135 50.5 -219t154.5 -84q95 0 137 45q11 11 11 73q0 25 24 25q12 0 25 -21.5t30 -61.5t27 -58q11 -20 31.5 -51t31.5 -50.5 t11 -29.5q0 -9 -5 -16t-12 -7q-11 0 -33 13.5t-34 13.5q-10 0 -16 -4q-80 -54 -228 -54q-207 0 -333 141.5t-126 352.5zM193 1227q0 54 35 90.5t85 36.5q48 0 83.5 -37t35.5 -90q0 -48 -36 -87.5t-83 -39.5q-48 0 -84 39.5t-36 87.5zM338 625h326q-3 76 -41.5 118.5 t-102.5 42.5q-66 0 -115.5 -42.5t-66.5 -118.5zM573 1227q0 54 35.5 90.5t85.5 36.5q48 0 83.5 -37t35.5 -90q0 -48 -36 -87.5t-83 -39.5q-49 0 -85 39.5t-36 87.5z" />
<glyph unicode="&#xec;" horiz-adv-x="507" d="M8 1348q0 21 23 38l67 46q22 16 43 16q27 0 56 -29l249 -258q23 -23 23 -47q0 -18 -16 -31l-56 -39q-17 -10 -30 -10q-22 0 -45 19l-285 241q-29 25 -29 54zM61 25q0 11 11.5 18.5t24.5 11t24.5 11.5t11.5 20v758q0 18 -36 32t-36 29q0 25 23 25h156q38 0 79 17.5 t50 17.5q22 0 22 -23q0 -12 -8 -40t-8 -58v-758q0 -12 11 -20t24.5 -11.5t24.5 -11t11 -18.5q0 -25 -22 -25h-340q-23 0 -23 25z" />
<glyph unicode="&#xed;" horiz-adv-x="507" d="M61 25q0 11 11.5 18.5t24.5 11t24.5 11.5t11.5 20v758q0 18 -36 32t-36 29q0 25 23 25h156q38 0 79 17.5t50 17.5q22 0 22 -23q0 -12 -8 -40t-8 -58v-758q0 -12 11 -20t24.5 -11.5t24.5 -11t11 -18.5q0 -25 -22 -25h-340q-23 0 -23 25zM72 1114q0 25 22 47l250 258 q29 29 55 29q21 0 43 -16l68 -46q22 -16 22 -38q0 -30 -28 -54l-285 -241q-23 -19 -45 -19q-14 0 -31 10l-55 39q-16 13 -16 31z" />
<glyph unicode="&#xee;" horiz-adv-x="507" d="M-51 1118q0 22 16 41l207 264q12 17 30.5 22t53.5 5t53.5 -5t30.5 -22l207 -264q16 -19 16 -41q0 -28 -22 -37l-62 -28q-12 -6 -22 -6q-25 0 -51 26l-156 164l-158 -164q-26 -26 -51 -26q-11 0 -23 6l-47 28q-22 13 -22 37zM61 25q0 11 11.5 18.5t24.5 11t24.5 11.5 t11.5 20v758q0 18 -36 32t-36 29q0 25 23 25h156q38 0 79 17.5t50 17.5q22 0 22 -23q0 -12 -8 -40t-8 -58v-758q0 -12 11 -20t24.5 -11.5t24.5 -11t11 -18.5q0 -25 -22 -25h-340q-23 0 -23 25z" />
<glyph unicode="&#xef;" horiz-adv-x="507" d="M-47 1227q0 54 35.5 90.5t85.5 36.5q48 0 83.5 -37t35.5 -90q0 -48 -36 -87.5t-83 -39.5q-49 0 -85 39.5t-36 87.5zM61 25q0 11 11.5 18.5t24.5 11t24.5 11.5t11.5 20v758q0 18 -36 32t-36 29q0 25 23 25h156q38 0 79 17.5t50 17.5q22 0 22 -23q0 -12 -8 -40t-8 -58v-758 q0 -12 11 -20t24.5 -11.5t24.5 -11t11 -18.5q0 -25 -22 -25h-340q-23 0 -23 25zM334 1227q0 54 35.5 90.5t85.5 36.5q48 0 83 -37t35 -90q0 -48 -35.5 -87.5t-82.5 -39.5q-49 0 -85 39.5t-36 87.5z" />
<glyph unicode="&#xf0;" d="M20 487q0 102 33.5 193.5t93.5 160.5t149.5 109.5t195.5 40.5q83 0 154.5 -29.5t115.5 -82.5q-18 144 -72 249l-164 -32q-39 -6 -54 3t-29 36l-3 6l-18 35q-1 2 -5 8.5t-4.5 8.5t-3.5 7.5t-2.5 7.5t-0.5 6.5t1 6.5t4.5 6t7.5 6t11.5 4t15.5 4l125 23q-56 36 -135 36 q-58 0 -107 -19t-77 -52q-6 -8 -7 -23t1 -33t2 -20q0 -25 -23 -25q-12 0 -28 23t-37.5 63t-34.5 58q-12 18 -36 47.5t-37 48.5t-13 29q0 24 18 24q13 0 33 -11t31 -11q12 0 20 8q101 82 295 82q249 0 393 -174l129 24q10 2 19 3t15.5 1.5t12.5 -1t10 -2t8.5 -4t6.5 -5 t5.5 -7t5 -8t5 -10t5.5 -10.5l18 -34q1 -2 5 -8.5t5.5 -9t4 -8t2.5 -8t0.5 -6.5t-2 -6.5t-5.5 -6t-9 -5.5t-14 -4t-18 -4l-120 -25q96 -205 96 -522q0 -332 -133 -500.5t-369 -168.5q-109 0 -202.5 41.5t-156 111t-98 161.5t-35.5 193zM272 487q0 -84 26 -154t81.5 -115.5 t132.5 -45.5q114 0 176 99t62 243q0 122 -62.5 202.5t-179.5 80.5q-120 0 -178 -86.5t-58 -223.5z" />
<glyph unicode="&#xf1;" horiz-adv-x="1101" d="M61 905q0 11 6.5 18t16.5 7h156q38 0 61.5 17.5t32.5 17.5q18 0 18 -23q0 -13 -6.5 -37.5t-5.5 -48.5h4q37 49 92 74.5t146 25.5q72 0 134 -19t113.5 -59t81 -109t29.5 -161v-522q0 -12 11 -20t24 -11.5t24 -11t11 -18.5q0 -25 -21 -25h-338q-22 0 -22 25q0 14 17.5 22 t34.5 16t17 23v522q0 77 -41 122.5t-112 45.5t-120.5 -40.5t-49.5 -108.5v-541q0 -12 11 -20t23.5 -11.5t23.5 -11t11 -18.5q0 -25 -22 -25h-338q-21 0 -21 25q0 11 11 18.5t24 11t24 11.5t11 20v758q0 18 -36 32t-36 29zM231 1169q0 63 69.5 138t148.5 75q34 0 68 -18.5 t57.5 -40.5t53.5 -40.5t56 -18.5q49 0 78 84q3 14 12.5 23t20.5 9q12 0 24 -12l53 -63q13 -16 13 -41q0 -60 -62 -128.5t-127 -68.5q-47 0 -86 19t-61 41.5t-50 41.5t-55 19q-66 0 -96 -92q-10 -27 -37 -27q-17 0 -30 16l-39 52q-11 15 -11 32z" />
<glyph unicode="&#xf2;" horiz-adv-x="1032" d="M61 471q0 137 54.5 247t159 174t241.5 64q138 0 242.5 -64.5t158.5 -174t54 -246.5q0 -213 -124 -353.5t-331 -140.5q-206 0 -330.5 141t-124.5 353zM270 1348q0 21 23 38l67 46q22 16 43 16q27 0 56 -29l250 -258q22 -22 22 -47q0 -18 -16 -31l-56 -39q-17 -10 -30 -10 q-22 0 -45 19l-285 241q-29 25 -29 54zM317 471q0 -91 17.5 -158t63.5 -112t118 -45q73 0 119 45t63 112t17 158q0 307 -199 307q-105 0 -152 -84t-47 -223z" />
<glyph unicode="&#xf3;" horiz-adv-x="1032" d="M61 471q0 137 54.5 247t159 174t241.5 64q138 0 242.5 -64.5t158.5 -174t54 -246.5q0 -213 -124 -353.5t-331 -140.5q-206 0 -330.5 141t-124.5 353zM313 1114q0 24 23 47l250 258q29 29 55 29q21 0 43 -16l68 -46q22 -16 22 -38q0 -29 -29 -54l-284 -241 q-23 -19 -45 -19q-14 0 -31 10l-55 39q-17 14 -17 31zM317 471q0 -91 17.5 -158t63.5 -112t118 -45q73 0 119 45t63 112t17 158q0 307 -199 307q-105 0 -152 -84t-47 -223z" />
<glyph unicode="&#xf4;" horiz-adv-x="1032" d="M61 471q0 137 54.5 247t159 174t241.5 64q138 0 242.5 -64.5t158.5 -174t54 -246.5q0 -213 -124 -353.5t-331 -140.5q-206 0 -330.5 141t-124.5 353zM215 1118q0 22 16 41l207 264q12 17 30.5 22t53.5 5t53.5 -5t30.5 -22l207 -264q16 -19 16 -41q0 -28 -22 -37l-62 -28 q-12 -6 -22 -6q-25 0 -51 26l-156 164l-158 -164q-26 -26 -51 -26q-10 0 -22 6l-47 28q-23 13 -23 37zM317 471q0 -91 17.5 -158t63.5 -112t118 -45q73 0 119 45t63 112t17 158q0 307 -199 307q-105 0 -152 -84t-47 -223z" />
<glyph unicode="&#xf5;" horiz-adv-x="1032" d="M61 471q0 137 54.5 247t159 174t241.5 64q138 0 242.5 -64.5t158.5 -174t54 -246.5q0 -213 -124 -353.5t-331 -140.5q-206 0 -330.5 141t-124.5 353zM207 1169q0 63 69 138t148 75q34 0 68 -18.5t57.5 -40.5t53.5 -40.5t56 -18.5q49 0 78 84q3 14 12.5 23t20.5 9 q13 0 25 -12l53 -63q12 -15 12 -41q0 -60 -61.5 -128.5t-126.5 -68.5q-47 0 -86 19t-61 41.5t-50 41.5t-55 19q-66 0 -96 -92q-10 -27 -37 -27q-18 0 -31 16l-39 52q-10 13 -10 32zM317 471q0 -91 17.5 -158t63.5 -112t118 -45q73 0 119 45t63 112t17 158q0 307 -199 307 q-105 0 -152 -84t-47 -223z" />
<glyph unicode="&#xf6;" horiz-adv-x="1032" d="M61 471q0 137 54.5 247t159 174t241.5 64q138 0 242.5 -64.5t158.5 -174t54 -246.5q0 -213 -124 -353.5t-331 -140.5q-206 0 -330.5 141t-124.5 353zM211 1227q0 54 35.5 90.5t85.5 36.5q48 0 83.5 -37t35.5 -90q0 -48 -36 -87.5t-83 -39.5q-49 0 -85 39.5t-36 87.5z M317 471q0 -91 17.5 -158t63.5 -112t118 -45q73 0 119 45t63 112t17 158q0 307 -199 307q-105 0 -152 -84t-47 -223zM592 1227q0 54 35.5 90.5t85.5 36.5q48 0 83 -37t35 -90q0 -48 -35.5 -87.5t-82.5 -39.5q-49 0 -85 39.5t-36 87.5z" />
<glyph unicode="&#xf7;" d="M117 463v13v13v43q0 12 0.5 18.5t2.5 16.5t7 14.5t14 8.5t23 4h774q10 0 18 -1.5t13 -2t8.5 -5.5t5.5 -6.5t3 -9.5t1 -9.5v-13.5v-14v-43v-11.5v-11.5t-0.5 -9.5t-2 -9t-3.5 -7t-6 -6.5l-9 -4.5t-12 -3t-16 -0.5h-774q-10 0 -17.5 1.5t-12.5 3t-8.5 6t-5 6.5t-2.5 10 t-1 10zM428 227q0 50 36.5 84.5t88.5 34.5t88.5 -34.5t36.5 -84.5q0 -49 -37 -83.5t-88 -34.5t-88 34.5t-37 83.5zM428 801q0 47 37 82t88 35t88 -35t37 -82q0 -51 -37 -87t-88 -36t-88 36t-37 87z" />
<glyph unicode="&#xf8;" horiz-adv-x="1017" d="M61 471q0 211 120.5 348t326.5 137q107 0 194 -38l33 47q26 37 45.5 42t57.5 -20l20 -14q32 -22 39 -43t-12 -56l-41 -63q112 -130 112 -340q0 -139 -52 -250t-155 -177.5t-241 -66.5q-106 0 -197 43l-32 -51q-25 -37 -44.5 -42t-60.5 22l-16 12q-27 20 -36.5 31t-9 27 t16.5 40l45 68q-113 134 -113 344zM303 471q0 -69 12 -131l281 418q-36 20 -88 20q-106 0 -155.5 -85t-49.5 -222zM418 178q39 -22 90 -22q107 0 158 88t51 227q0 73 -15 131z" />
<glyph unicode="&#xf9;" horiz-adv-x="1069" d="M61 905q0 25 21 25h156q36 0 78 17.5t51 17.5q22 0 22 -23q0 -12 -8 -40t-8 -58v-522q0 -77 41 -122.5t112 -45.5q68 0 119 41t51 108v541q0 18 -34.5 32t-34.5 29q0 25 22 25h154q39 0 80 17.5t49 17.5q22 0 22 -23q0 -12 -8 -40t-8 -58v-758q0 -12 11 -20t24 -11.5 t24 -11t11 -18.5q0 -12 -6 -19.5t-15 -7.5q-37 0 -105 1t-98 1q-45 0 -51 72h-6q-32 -45 -93.5 -72t-144.5 -27q-72 0 -134 19.5t-113.5 59.5t-81 109t-29.5 161v522q0 18 -35 32t-35 29zM254 1348q0 22 22 38l68 46q22 16 43 16q26 0 55 -29l250 -258q23 -23 23 -47 q0 -17 -17 -31l-55 -39q-17 -10 -31 -10q-22 0 -45 19l-284 241q-29 25 -29 54z" />
<glyph unicode="&#xfa;" horiz-adv-x="1069" d="M61 905q0 25 21 25h156q36 0 78 17.5t51 17.5q22 0 22 -23q0 -12 -8 -40t-8 -58v-522q0 -77 41 -122.5t112 -45.5q68 0 119 41t51 108v541q0 18 -34.5 32t-34.5 29q0 25 22 25h154q39 0 80 17.5t49 17.5q22 0 22 -23q0 -12 -8 -40t-8 -58v-758q0 -12 11 -20t24 -11.5 t24 -11t11 -18.5q0 -12 -6 -19.5t-15 -7.5q-37 0 -105 1t-98 1q-45 0 -51 72h-6q-32 -45 -93.5 -72t-144.5 -27q-72 0 -134 19.5t-113.5 59.5t-81 109t-29.5 161v522q0 18 -35 32t-35 29zM338 1114q0 25 22 47l250 258q29 29 56 29q21 0 43 -16l67 -46q23 -17 23 -38 q0 -29 -29 -54l-285 -241q-23 -19 -45 -19q-13 0 -30 10l-56 39q-16 13 -16 31z" />
<glyph unicode="&#xfb;" horiz-adv-x="1069" d="M61 905q0 25 21 25h156q36 0 78 17.5t51 17.5q22 0 22 -23q0 -12 -8 -40t-8 -58v-522q0 -77 41 -122.5t112 -45.5q68 0 119 41t51 108v541q0 18 -34.5 32t-34.5 29q0 25 22 25h154q39 0 80 17.5t49 17.5q22 0 22 -23q0 -12 -8 -40t-8 -58v-758q0 -12 11 -20t24 -11.5 t24 -11t11 -18.5q0 -12 -6 -19.5t-15 -7.5q-37 0 -105 1t-98 1q-45 0 -51 72h-6q-32 -45 -93.5 -72t-144.5 -27q-72 0 -134 19.5t-113.5 59.5t-81 109t-29.5 161v522q0 18 -35 32t-35 29zM227 1118q0 21 17 41l207 264q12 17 30.5 22t53.5 5t53 -5t30 -22l207 -264 q17 -20 17 -41q0 -27 -23 -37l-61 -28q-12 -6 -23 -6q-25 0 -51 26l-156 164l-157 -164q-26 -26 -52 -26q-10 0 -22 6l-47 28q-23 13 -23 37z" />
<glyph unicode="&#xfc;" horiz-adv-x="1069" d="M61 905q0 25 21 25h156q36 0 78 17.5t51 17.5q22 0 22 -23q0 -12 -8 -40t-8 -58v-522q0 -77 41 -122.5t112 -45.5q68 0 119 41t51 108v541q0 18 -34.5 32t-34.5 29q0 25 22 25h154q39 0 80 17.5t49 17.5q22 0 22 -23q0 -12 -8 -40t-8 -58v-758q0 -12 11 -20t24 -11.5 t24 -11t11 -18.5q0 -12 -6 -19.5t-15 -7.5q-37 0 -105 1t-98 1q-45 0 -51 72h-6q-32 -45 -93.5 -72t-144.5 -27q-72 0 -134 19.5t-113.5 59.5t-81 109t-29.5 161v522q0 18 -35 32t-35 29zM229 1227q0 54 35.5 90.5t85.5 36.5q48 0 83.5 -37t35.5 -90q0 -48 -36 -87.5 t-83 -39.5q-49 0 -85 39.5t-36 87.5zM610 1227q0 54 35.5 90.5t85.5 36.5q48 0 83.5 -37t35.5 -90q0 -48 -36 -87.5t-83 -39.5q-49 0 -85 39.5t-36 87.5z" />
<glyph unicode="&#xfd;" horiz-adv-x="911" d="M-29 905q0 25 23 25h352q23 0 23 -25q0 -10 -12.5 -18t-26.5 -12t-24 -12t-7 -19l174 -514h8l168 514q3 11 -7 19t-24 12t-26 12t-12 18q0 25 22 25h320q22 0 22 -25q0 -16 -32 -30.5t-38 -30.5l-425 -1192q-4 -11 6 -19t24 -12.5t26.5 -12.5t12.5 -18q0 -24 -18 -24 h-324q-22 0 -22 24q0 16 31.5 31t37.5 31l139 379q-17 17 -28 34t-15.5 28t-13.5 36l-264 715q-6 16 -38 30.5t-32 30.5zM313 1114q0 24 23 47l250 258q29 29 55 29q21 0 43 -16l68 -46q22 -16 22 -38q0 -29 -29 -54l-284 -241q-23 -19 -45 -19q-14 0 -31 10l-55 39 q-17 14 -17 31z" />
<glyph unicode="&#xfe;" horiz-adv-x="1067" d="M61 -410q0 14 17.5 22t35 16.5t17.5 23.5v1769q-9 8 -28.5 18.5t-30.5 20t-11 23.5q0 24 23 24h152q38 0 80 17.5t51 17.5q22 0 22 -22q0 -12 -8 -40t-8 -59v-540q27 33 84.5 52t134.5 19q119 0 214 -65.5t147.5 -178t52.5 -249.5q0 -207 -117 -346.5t-297 -139.5 q-134 0 -219 64v-385q0 -15 17.5 -23.5t34.5 -16.5t17 -22q0 -24 -22 -24h-338q-21 0 -21 24zM373 313q0 -74 50 -117.5t128 -43.5q72 0 118.5 43t64.5 109t18 155q0 140 -48 227.5t-153 87.5q-78 0 -128 -44t-50 -118v-299z" />
<glyph unicode="&#xff;" horiz-adv-x="911" d="M-29 905q0 25 23 25h352q23 0 23 -25q0 -10 -12.5 -18t-26.5 -12t-24 -12t-7 -19l174 -514h8l168 514q3 11 -7 19t-24 12t-26 12t-12 18q0 25 22 25h320q22 0 22 -25q0 -16 -32 -30.5t-38 -30.5l-425 -1192q-4 -11 6 -19t24 -12.5t26.5 -12.5t12.5 -18q0 -24 -18 -24 h-324q-22 0 -22 24q0 16 31.5 31t37.5 31l139 379q-17 17 -28 34t-15.5 28t-13.5 36l-264 715q-6 16 -38 30.5t-32 30.5zM180 1227q0 54 35.5 90.5t85.5 36.5q48 0 83.5 -37t35.5 -90q0 -48 -36 -87.5t-83 -39.5q-49 0 -85 39.5t-36 87.5zM561 1227q0 54 35.5 90.5 t85.5 36.5q48 0 83.5 -37t35.5 -90q0 -48 -36 -87.5t-83 -39.5q-49 0 -85 39.5t-36 87.5z" />
<glyph unicode="&#x131;" horiz-adv-x="491" d="M55 25q0 11 11.5 18.5t24.5 11t24.5 11.5t11.5 20v758q0 18 -36 32t-36 29q0 25 23 25h155q38 0 79 17.5t50 17.5q23 0 23 -23q0 -12 -8 -40t-8 -58v-758q0 -12 11 -20t24.5 -11.5t24.5 -11t11 -18.5q0 -25 -22 -25h-340q-23 0 -23 25z" />
<glyph unicode="&#x152;" horiz-adv-x="1835" d="M80 733q0 161 37 296.5t109 239t188 162t264 58.5q91 0 184 -27h793q14 0 22.5 8t11 17.5t8.5 17.5t17 8q25 0 25 -22v-268q0 -23 -25 -23q-11 0 -18.5 11.5t-11 25.5t-11 25.5t-18.5 11.5h-527q115 -158 140 -397h303q18 0 31 36.5t28 36.5q25 0 25 -22v-293 q0 -23 -25 -23q-15 0 -28 37t-31 37h-295q-13 -310 -150 -498h537q11 0 18.5 11.5t11 25.5t11 25.5t18.5 11.5q25 0 25 -22v-269q0 -22 -25 -22q-11 0 -17 8t-8.5 17.5t-11 17.5t-22.5 8h-817q-84 -23 -168 -23q-119 0 -217.5 38.5t-168.5 106.5t-118 163.5t-71 208 t-23 239.5zM342 733q0 -124 17.5 -222.5t55 -178t104.5 -123t159 -43.5t159.5 43.5t105.5 123t55.5 178.5t17.5 222q0 98 -10.5 181t-35.5 155.5t-63 122.5t-96.5 79t-132.5 29q-92 0 -159 -43t-104.5 -122.5t-55 -178.5t-17.5 -223z" />
<glyph unicode="&#x153;" horiz-adv-x="1638" d="M76 471q0 210 124 347.5t330 137.5q205 0 330 -141q122 141 330 141q100 0 173.5 -35t113 -93t57.5 -121t18 -132q0 -36 13.5 -57.5t13.5 -30.5q0 -26 -27 -26h-567q2 -135 50.5 -219t154.5 -84q95 0 137 45q6 6 8.5 17t2.5 19.5t-0.5 22t-0.5 14.5q0 25 25 25 q12 0 24.5 -22t29 -60.5t28.5 -58.5q10 -17 31.5 -49.5t32 -52t10.5 -29.5q0 -9 -5 -16t-12 -7q-11 0 -39.5 16.5t-44.5 6.5q-80 -54 -227 -54q-102 0 -186.5 38t-143.5 106q-126 -142 -330 -142q-206 0 -330 141t-124 353zM334 471q0 -67 10 -121.5t31.5 -99.5t61 -69.5 t93.5 -24.5q73 0 119.5 45t64 112t17.5 158q0 66 -10.5 119.5t-33 96.5t-62.5 67t-95 24q-196 0 -196 -307zM1010 625h319q-12 157 -139 157q-66 0 -114 -40.5t-66 -116.5z" />
<glyph unicode="&#x178;" horiz-adv-x="1054" d="M-92 1438q0 24 22 24h385q23 0 23 -24q0 -10 -12.5 -18t-27 -12.5t-25 -12.5t-7.5 -19l275 -420l280 420q3 11 -7 19t-24.5 12.5t-27 12.5t-12.5 18q0 24 22 24h352q23 0 23 -24q0 -17 -32 -33.5t-40 -28.5l-424 -637v-657q0 -12 10.5 -20t23.5 -12t23.5 -11.5 t10.5 -18.5q0 -20 -23 -20h-336q-22 0 -22 20q0 14 17 22t34 16.5t17 23.5v645l-426 649q-7 11 -39.5 28t-32.5 34zM279 1671q0 42 30 72.5t70 30.5t69 -30t29 -73q0 -39 -29.5 -70.5t-68.5 -31.5t-69.5 31.5t-30.5 70.5zM612 1671q0 42 30.5 72.5t70.5 30.5t69 -30t29 -73 q0 -39 -29.5 -70.5t-68.5 -31.5t-70 31.5t-31 70.5z" />
<glyph unicode="&#x192;" d="M-137 -332q2 10 7.5 19t19 28t26.5 39q17 27 34.5 56.5t25 42t16 24.5t14.5 15.5t14 3.5q12 0 18 -4t5 -15q-10 -37 -14 -57q-5 -30 17.5 -53t62.5 -23q70 0 102.5 39t46.5 137l123 825h-51q-15 0 -23.5 5t-5.5 22q1 11 16.5 26.5t34 29.5t35.5 38.5t21 51.5l36 235 q27 172 124.5 270.5t256.5 98.5q108 0 179 -37t65 -80q-2 -10 -7.5 -19t-19 -28t-26.5 -39q-13 -21 -26.5 -42.5t-20.5 -34t-15 -25.5t-12.5 -19t-10 -11.5t-10 -7t-10.5 -1.5q-12 0 -17.5 3.5t-4.5 14.5q10 37 14 57q5 30 -17.5 53t-62.5 23q-70 0 -102 -39t-47 -137 l-35 -223h219q46 0 37 -45q-10 -66 -27 -185q-3 -24 -26 -24q-11 0 -18.5 11t-10.5 23.5t-10 23.5t-17 11h-176l-123 -825q-25 -171 -123.5 -270t-257.5 -99q-108 0 -178.5 37t-64.5 80z" />
<glyph unicode="&#x2c6;" horiz-adv-x="909" d="M199 1118q0 22 16 41l207 264q12 17 30.5 22t53.5 5t53.5 -5t30.5 -22l207 -264q16 -19 16 -41q0 -28 -22 -37l-62 -28q-12 -6 -22 -6q-26 0 -52 26l-155 164l-158 -164q-26 -26 -51 -26q-11 0 -23 6l-47 28q-22 13 -22 37z" />
<glyph unicode="&#x2c7;" horiz-adv-x="909" d="M199 1368q0 28 22 37l62 29q12 6 22 6q24 0 51 -27l156 -164l158 164q27 27 51 27q10 0 22 -6l48 -29q22 -13 22 -37q0 -22 -16 -41l-207 -264q-12 -17 -30.5 -22t-53.5 -5t-53.5 5t-30.5 22l-207 264q-16 19 -16 41z" />
<glyph unicode="&#x2d8;" horiz-adv-x="909" d="M276 1327q0 26 38 37.5t76 1t38 -38.5q0 -39 24.5 -66.5t63.5 -27.5q38 0 62 27.5t24 66.5q0 24 38.5 33.5t77 -0.5t38.5 -33q0 -98 -71 -170t-169 -72q-99 0 -169.5 71.5t-70.5 170.5z" />
<glyph unicode="&#x2d9;" horiz-adv-x="491" d="M109 1241q0 55 41 94t98 39q56 0 97.5 -38.5t41.5 -94.5q0 -54 -41.5 -93.5t-97.5 -39.5q-57 0 -98 39.5t-41 93.5z" />
<glyph unicode="&#x2da;" horiz-adv-x="1099" d="M289 1257q0 90 63 155t152 65t153 -65t64 -155q0 -89 -64 -154t-153 -65t-152 64.5t-63 154.5zM426 1257q0 -36 22 -61t56 -25t56 25t22 61t-21.5 60t-56.5 24t-56.5 -24t-21.5 -60z" />
<glyph unicode="&#x2db;" horiz-adv-x="864" d="M297 -215q0 71 64.5 134.5t158.5 80.5h150q-82 -19 -127 -66t-45 -114q0 -96 88 -96q40 0 69.5 14t49 28.5t34.5 14.5q23 0 42.5 -19.5t19.5 -48.5q0 -25 -19 -41q-67 -55 -104 -74q-56 -28 -117 -28q-126 0 -195 53.5t-69 161.5z" />
<glyph unicode="&#x2dc;" horiz-adv-x="909" d="M182 1169q0 63 69 138t148 75q34 0 68 -18.5t57.5 -40.5t54 -40.5t56.5 -18.5q49 0 78 84q3 15 12 23.5t20 8.5q13 0 25 -12l53 -63q13 -16 13 -41q0 -60 -62 -128.5t-127 -68.5q-47 0 -86 19t-61 41.5t-50 41.5t-55 19q-66 0 -96 -92q-10 -27 -37 -27q-18 0 -31 16 l-38 52q-11 15 -11 32z" />
<glyph unicode="&#x2dd;" horiz-adv-x="909" d="M190 1051l5 10l122 225q55 100 160 100q31 0 51.5 -17t20.5 -42q0 -19 -19 -41l-208 -225q-37 -39 -84 -39q-19 0 -33.5 8.5t-14.5 20.5zM485 1051q0 2 4 10l123 225q55 100 160 100q31 0 51.5 -17t20.5 -42q0 -19 -19 -41l-209 -225q-37 -39 -84 -39q-19 0 -33 8.5 t-14 20.5z" />
<glyph unicode="&#x2000;" horiz-adv-x="934" />
<glyph unicode="&#x2001;" horiz-adv-x="1868" />
<glyph unicode="&#x2002;" horiz-adv-x="934" />
<glyph unicode="&#x2003;" horiz-adv-x="1868" />
<glyph unicode="&#x2004;" horiz-adv-x="622" />
<glyph unicode="&#x2005;" horiz-adv-x="467" />
<glyph unicode="&#x2006;" horiz-adv-x="311" />
<glyph unicode="&#x2007;" horiz-adv-x="311" />
<glyph unicode="&#x2008;" horiz-adv-x="233" />
<glyph unicode="&#x2009;" horiz-adv-x="373" />
<glyph unicode="&#x200a;" horiz-adv-x="103" />
<glyph unicode="&#x2010;" horiz-adv-x="522" d="M51 476v9v45q0 48 8 60q10 14 35 14h328q9 0 16 -0.5t12.5 -3.5t9 -4.5t5.5 -6.5t3.5 -7.5t2 -10.5t0.5 -11.5v-14.5v-15v-45v-14v-13t-0.5 -11t-2 -10.5t-3.5 -8t-6 -7.5l-9 -4.5t-12 -3.5t-16 -1h-328q-16 0 -25 4t-13 14.5t-4.5 18.5t-0.5 27z" />
<glyph unicode="&#x2011;" horiz-adv-x="522" d="M51 476v9v45q0 48 8 60q10 14 35 14h328q9 0 16 -0.5t12.5 -3.5t9 -4.5t5.5 -6.5t3.5 -7.5t2 -10.5t0.5 -11.5v-14.5v-15v-45v-14v-13t-0.5 -11t-2 -10.5t-3.5 -8t-6 -7.5l-9 -4.5t-12 -3.5t-16 -1h-328q-16 0 -25 4t-13 14.5t-4.5 18.5t-0.5 27z" />
<glyph unicode="&#x2012;" horiz-adv-x="522" d="M51 476v9v45q0 48 8 60q10 14 35 14h328q9 0 16 -0.5t12.5 -3.5t9 -4.5t5.5 -6.5t3.5 -7.5t2 -10.5t0.5 -11.5v-14.5v-15v-45v-14v-13t-0.5 -11t-2 -10.5t-3.5 -8t-6 -7.5l-9 -4.5t-12 -3.5t-16 -1h-328q-16 0 -25 4t-13 14.5t-4.5 18.5t-0.5 27z" />
<glyph unicode="&#x2013;" horiz-adv-x="974" d="M52 469q1 16 1 20v43q0 12 0.5 18.5t2.5 16.5t7 14.5t14 8.5t23 4h774q13 0 21.5 -1t14 -4.5t9 -5.5t4.5 -9.5t1.5 -11t0 -14.5t-0.5 -16v-43q0 -4 0.5 -14.5t0 -14.5t-1.5 -11.5t-4.5 -10t-9 -6.5t-14.5 -5t-21 -1h-774q-17 0 -27.5 2t-14.5 10.5t-5.5 11.5t-0.5 19z " />
<glyph unicode="&#x2014;" horiz-adv-x="1384" d="M52 469q1 16 1 20v43q0 12 0.5 18.5t2.5 16.5t7 14.5t14 8.5t23 4h1184q13 0 21.5 -1t14 -4.5t8.5 -6t4 -9.5l1.5 -10.5t0 -14t-0.5 -16.5v-43q0 -5 0.5 -15t0 -14t-1.5 -11t-4 -10t-8.5 -6.5t-14.5 -5t-21 -1.5h-1184q-17 0 -27.5 2t-14.5 10.5t-5.5 11.5t-0.5 19z" />
<glyph unicode="&#x2018;" horiz-adv-x="514" d="M113 1180q0 94 37.5 185.5t87.5 144.5t92 53q26 0 35.5 -8.5t9.5 -30.5q0 -13 -19 -47t-38 -77.5t-19 -80.5q0 -31 14 -31q37 0 62.5 -31t25.5 -83q0 -59 -40 -100.5t-99 -41.5q-65 0 -107 38.5t-42 109.5z" />
<glyph unicode="&#x2019;" horiz-adv-x="514" d="M113 1378q0 59 40 100.5t99 41.5q65 0 107 -38.5t42 -109.5q0 -94 -37.5 -185.5t-87.5 -144.5t-92 -53q-26 0 -35.5 8.5t-9.5 30.5q0 13 19 47t38 77.5t19 80.5q0 31 -14 31q-37 0 -62.5 31t-25.5 83z" />
<glyph unicode="&#x201a;" horiz-adv-x="446" d="M59 141q0 59 40.5 100.5t99.5 41.5q65 0 107 -38.5t42 -109.5q0 -94 -37.5 -185.5t-87.5 -144.5t-92 -53q-26 0 -35.5 8.5t-9.5 30.5q0 13 19 47t38 77.5t19 80.5q0 31 -15 31q-37 0 -62.5 31t-25.5 83z" />
<glyph unicode="&#x201c;" horiz-adv-x="862" d="M113 1180q0 94 37.5 185.5t87.5 144.5t92 53q26 0 35.5 -8.5t9.5 -30.5q0 -13 -19 -47t-38 -77.5t-19 -80.5q0 -31 14 -31q37 0 62.5 -31t25.5 -83q0 -59 -40 -100.5t-99 -41.5q-65 0 -107 38.5t-42 109.5zM461 1180q0 94 37.5 185.5t87.5 144.5t92 53q26 0 35.5 -8.5 t9.5 -30.5q0 -13 -19 -47t-38 -77.5t-19 -80.5q0 -31 15 -31q37 0 62.5 -31t25.5 -83q0 -59 -40.5 -100.5t-99.5 -41.5q-65 0 -107 38.5t-42 109.5z" />
<glyph unicode="&#x201d;" horiz-adv-x="862" d="M113 1378q0 59 40 100.5t99 41.5q65 0 107 -38.5t42 -109.5q0 -94 -37.5 -185.5t-87.5 -144.5t-92 -53q-26 0 -35.5 8.5t-9.5 30.5q0 13 19 47t38 77.5t19 80.5q0 31 -14 31q-37 0 -62.5 31t-25.5 83zM461 1378q0 59 40 100.5t99 41.5q65 0 107.5 -38.5t42.5 -109.5 t-22.5 -143t-55.5 -123.5t-71 -84t-69 -32.5q-26 0 -35.5 8.5t-9.5 30.5q0 13 19 47t38 77.5t19 80.5q0 31 -14 31q-37 0 -62.5 31t-25.5 83z" />
<glyph unicode="&#x201e;" horiz-adv-x="862" d="M113 141q0 59 40 100.5t99 41.5q65 0 107 -38.5t42 -109.5q0 -94 -37.5 -185.5t-87.5 -144.5t-92 -53q-26 0 -35.5 8.5t-9.5 30.5q0 13 19 47t38 77.5t19 80.5q0 31 -14 31q-37 0 -62.5 31t-25.5 83zM461 141q0 59 40 100.5t99 41.5q65 0 107.5 -38.5t42.5 -109.5 t-22.5 -143t-55.5 -123.5t-71 -84t-69 -32.5q-26 0 -35.5 8.5t-9.5 30.5q0 13 19 47t38 77.5t19 80.5q0 31 -14 31q-37 0 -62.5 31t-25.5 83z" />
<glyph unicode="&#x2020;" horiz-adv-x="983" d="M41 770v299q0 23 25 23q15 0 28 -37t31 -37h250l-8 358q0 18 -36 32.5t-36 29.5q0 24 22 24h349q22 0 22 -24q0 -15 -36 -29.5t-36 -32.5l-6 -358h250q18 0 31.5 37t28.5 37q24 0 24 -23v-299q0 -22 -24 -22q-15 0 -28.5 36.5t-31.5 36.5h-252l-20 -1206q0 -12 -2 -20.5 t-8.5 -14t-10.5 -8.5t-16 -4.5t-16.5 -2t-20.5 0t-20 0.5h-29.5t-24 2.5t-23 7t-12.5 14.5t-6 25l-22 1206h-252q-18 0 -31 -36.5t-28 -36.5q-25 0 -25 22z" />
<glyph unicode="&#x2021;" horiz-adv-x="985" d="M41 770v299q0 23 25 23q15 0 28 -37t31 -37h250l-8 358q0 18 -36 32.5t-36 29.5q0 24 22 24h349q22 0 22 -24q0 -15 -36 -29.5t-36 -32.5l-6 -358h250q18 0 31.5 37t28.5 37q24 0 24 -23v-299q0 -22 -24 -22q-15 0 -28.5 36.5t-31.5 36.5h-252l-8 -524h242q18 0 31 37 t28 37q25 0 25 -23v-299q0 -22 -25 -22q-15 0 -28 36.5t-31 36.5h-246l-8 -485q0 -12 -2 -20.5t-8.5 -14t-10.5 -8.5t-16 -4.5t-16.5 -2t-20.5 0t-20 0.5h-29.5t-24 2.5t-23 7t-12.5 14.5t-6 25l-8 485h-248q-18 0 -31 -36.5t-28 -36.5q-25 0 -25 22v299q0 23 25 23 q15 0 28 -37t31 -37h244l-10 524h-252q-18 0 -31 -36.5t-28 -36.5q-25 0 -25 22z" />
<glyph unicode="&#x2022;" horiz-adv-x="800" d="M29 764q0 160 109 273.5t263 113.5q155 0 265 -113.5t110 -273.5t-110 -272.5t-265 -112.5q-154 0 -263 112.5t-109 272.5z" />
<glyph unicode="&#x2026;" horiz-adv-x="1757" d="M113 133q0 64 47 109t112 45q66 0 114 -45t48 -109t-47.5 -108.5t-114.5 -44.5q-65 0 -112 44.5t-47 108.5zM727 133q0 64 47.5 109t112.5 45q66 0 114 -45t48 -109t-47.5 -108.5t-114.5 -44.5q-65 0 -112.5 44.5t-47.5 108.5zM1341 133q0 64 47.5 109t112.5 45 q66 0 114 -45t48 -109t-47.5 -108.5t-114.5 -44.5q-65 0 -112.5 44.5t-47.5 108.5z" />
<glyph unicode="&#x202f;" horiz-adv-x="373" />
<glyph unicode="&#x2030;" horiz-adv-x="2080" d="M53 1196q0 121 92 207t220 86t219.5 -86t91.5 -207q0 -120 -92 -206.5t-219 -86.5q-128 0 -220 86.5t-92 206.5zM159 23.5q-12 23.5 9 54.5l803 1341q25 43 73 43h109q44 0 54.5 -20.5t-11.5 -55.5l-797 -1339q-27 -47 -73 -47h-113q-42 0 -54 23.5zM262 1196 q0 -43 29.5 -73.5t73.5 -30.5q43 0 74.5 30.5t31.5 73.5t-31.5 73.5t-74.5 30.5q-44 0 -73.5 -30.5t-29.5 -73.5zM700 270q0 121 92 207t220 86t219.5 -86t91.5 -207q0 -120 -92 -206.5t-219 -86.5q-128 0 -220 86.5t-92 206.5zM909 270q0 -43 29.5 -73.5t73.5 -30.5 q43 0 74.5 30.5t31.5 73.5t-31.5 74t-74.5 31q-44 0 -73.5 -31t-29.5 -74zM1417 270q0 121 92 207t220 86t219.5 -86t91.5 -207q0 -120 -92 -206.5t-219 -86.5q-128 0 -220 86.5t-92 206.5zM1626 270q0 -43 29.5 -73.5t73.5 -30.5q43 0 74.5 30.5t31.5 73.5t-31.5 74 t-74.5 31q-44 0 -73.5 -31t-29.5 -74z" />
<glyph unicode="&#x2039;" horiz-adv-x="624" d="M51 516q0 56 53 100l318 261q18 18 57 18q26 0 42 -17.5t16 -50.5q0 -20 -45 -71l-195 -232l195 -243q27 -33 36 -48.5t9 -29.5q0 -29 -17.5 -46.5t-42.5 -17.5q-30 0 -55 21l-322 260q-49 42 -49 96z" />
<glyph unicode="&#x203a;" horiz-adv-x="624" d="M53 209q0 21 45 72l195 231l-195 244q-27 33 -36 48.5t-9 29.5q0 28 17.5 45.5t42.5 17.5q31 0 55 -20l321 -261q50 -43 50 -96q0 -55 -54 -100l-317 -260q-19 -19 -57 -19q-26 0 -42 17.5t-16 50.5z" />
<glyph unicode="&#x205f;" horiz-adv-x="467" />
<glyph unicode="&#x20ac;" horiz-adv-x="1191" d="M39 506q0 8 0.5 11.5t4.5 16t5 17.5l12 41q5 18 8 24.5t10 18.5t18 16t28 4h33q-2 25 -2 78q0 55 2 82h-72q-17 0 -26.5 2.5t-12 10t-2.5 12.5t4.5 19t5.5 20l11 43q5 20 9.5 30.5t18 20.5t35.5 10h53q48 232 194 369t380 137q180 0 319 -94q18 -11 45 5.5t37 16.5 q9 0 15 -6.5t6 -15.5q0 -10 -11.5 -30t-32.5 -51.5t-32 -49.5q-9 -16 -30 -60.5t-36 -68t-26 -23.5q-25 0 -25 25q0 1 0.5 14.5t0.5 22t-2.5 19.5t-8.5 17q-38 44 -98 67t-121 23q-250 0 -318 -317h404q15 0 23.5 -2t13 -4.5t5 -9t0 -11t-4 -16.5t-5.5 -18l-10 -43 q-1 -4 -2.5 -13t-2.5 -12.5t-3.5 -10.5t-5 -10t-7 -7.5t-10.5 -6t-14.5 -3t-19.5 -1.5h-381q-2 -27 -2 -82q0 -53 2 -78h340q13 0 21.5 -1t13 -4.5t7 -5.5t2 -9.5t-1 -10.5t-4.5 -15t-5 -17l-13 -41q-1 -5 -4 -17t-4.5 -16.5t-5.5 -12t-10 -10.5t-16.5 -5.5t-24.5 -2.5h-275 q66 -321 318 -321q57 0 117.5 24.5t95.5 61.5q6 6 8.5 17t2.5 20t-0.5 22.5t-0.5 14.5q0 24 25 24q11 0 25.5 -23.5t34.5 -67t30 -60.5q10 -18 31.5 -50t32.5 -51.5t11 -29.5q0 -9 -5.5 -16t-14.5 -7t-36.5 15.5t-45.5 5.5q-144 -89 -311 -89q-231 0 -377.5 138t-198.5 372 h-100q-14 0 -23 2.5t-13.5 5.5t-4.5 11z" />
<glyph unicode="&#x2122;" horiz-adv-x="1812" d="M66 1298v177q0 14 16 14q10 0 19.5 -13.5t21.5 -13.5h592q11 0 20 13.5t21 13.5q16 0 16 -14v-177q0 -12 -16 -12q-12 0 -21 21.5t-20 21.5h-215v-694q0 -10 24.5 -18.5t24.5 -18.5q0 -14 -17 -14h-227q-16 0 -16 14q0 10 24.5 18.5t24.5 18.5v694h-215 q-12 0 -21.5 -21.5t-19.5 -21.5q-16 0 -16 12zM778 598q0 10 24.5 18.5t24.5 18.5v776q0 10 -24.5 19t-24.5 18q0 14 15 14h235q16 0 16 -14q0 -9 -24.5 -18t-24.5 -19l252 -514h4l238 514q0 10 -24.5 19t-24.5 18q0 14 14 14h229q15 0 15 -14q0 -9 -24.5 -18t-24.5 -19 v-776q0 -10 24.5 -18.5t24.5 -18.5q0 -14 -15 -14h-223q-14 0 -14 14q0 10 24.5 18.5t24.5 18.5v467h-4l-199 -434q-4 -9 -8 -16t-8 -11.5t-6.5 -7t-7.5 -3.5t-6.5 -1h-7.5h-7h-6.5h-6t-5.5 0.5t-6 2t-5.5 4.5t-6.5 7t-7 10.5t-8 14.5l-211 434h-2v-467q0 -10 24.5 -18.5 t24.5 -18.5q0 -14 -16 -14h-217q-15 0 -15 14z" />
<glyph unicode="&#x2260;" d="M116 299q1 16 1 20v41q0 22 1.5 32.5t12.5 21t33 10.5h244l81 160h-325q-17 0 -27.5 2t-14.5 10.5t-5.5 11.5t-0.5 19t1 20v43q0 12 0.5 18.5t2.5 16.5t7 14.5t14 8.5t23 4h411l62 118q22 43 74 43h51q43 0 53 -19t-10 -56l-43 -86h176q13 0 21.5 -1t14 -4.5t8.5 -6 t4 -9.5l1.5 -10.5t0 -14t-0.5 -16.5v-43q0 -5 0.5 -15t0 -14t-1.5 -11t-4 -10t-8.5 -6.5t-14.5 -5t-21 -1.5h-262l-82 -160h344q15 0 24.5 -2.5t14.5 -4t7.5 -10t3 -11.5t0 -17t-0.5 -19v-41q0 -5 0.5 -15t0 -14t-1.5 -11t-4 -10t-8.5 -6.5t-14.5 -5t-21 -1.5h-428l-61 -119 q-23 -47 -74 -47h-56q-42 0 -52.5 23.5t7.5 54.5l45 88h-155q-17 0 -27.5 2t-14.5 10.5t-5.5 11.5t-0.5 19z" />
<glyph unicode="&#x2264;" d="M116 43q1 16 1 20v43q0 12 0.5 18.5t2.5 16.5t7 14.5t14 8.5t23 4h774q13 0 21.5 -1t14 -4.5t8.5 -6t4 -9.5l1.5 -10.5t0 -14t-0.5 -16.5v-43q0 -5 0.5 -15t0 -14t-1.5 -11t-4 -10t-8.5 -6.5t-14.5 -5t-21 -1.5h-774q-17 0 -27.5 2t-14.5 10.5t-5.5 11.5t-0.5 19z M121 743v27q0 48 41 72l669 385q47 28 65.5 27t37.5 -33l31 -54q16 -30 8.5 -44.5t-45.5 -37.5l-561 -323l567 -334q37 -23 44 -41t-13 -51l-35 -53q-17 -25 -36 -24.5t-63 26.5l-669 387q-41 24 -41 71z" />
<glyph unicode="&#x2265;" d="M114.5 29.5q-0.5 3.5 0 16.5t0.5 17v43q0 6 -0.5 16.5t0 14l1.5 10.5t4 9.5t8.5 6t14 4.5t21.5 1h774q14 0 23 -4t14 -8.5t7 -14.5t2.5 -16.5t0.5 -18.5v-43q0 -6 0.5 -17.5t0.5 -16t-2.5 -11.5t-7.5 -10t-14.5 -5.5t-23.5 -2.5h-774q-14 0 -24 2.5t-15 5t-7.5 10.5 t-3 11.5zM124 387q7 18 44 41l567 334l-561 323q-38 23 -45.5 37.5t8.5 44.5l31 54q19 32 37 33t65 -27l670 -385q41 -24 41 -72v-27q0 -47 -41 -71l-670 -387q-44 -26 -62.5 -26.5t-35.5 24.5l-35 53q-20 33 -13 51z" />
<glyph unicode="&#x25fc;" horiz-adv-x="931" d="M0 0v932h932v-932h-932z" />
</font>
</defs>
</svg>
